<?xml version="1.0" standalone="no"?>
<!DOCTYPE svg PUBLIC "-//W3C//DTD SVG 1.1//EN" "http://www.w3.org/Graphics/SVG/1.1/DTD/svg11.dtd" >
<svg xmlns="http://www.w3.org/2000/svg" xmlns:xlink="http://www.w3.org/1999/xlink" version="1.1">
<metadata></metadata>
<defs>
<font id="webfontregular" horiz-adv-x="0" >
<font-face units-per-em="2048" ascent="1638" descent="-410" />
<missing-glyph horiz-adv-x="264" />
<glyph horiz-adv-x="2048" />
<glyph horiz-adv-x="2048" />
<glyph unicode="&#xd;" horiz-adv-x="2048" />
<glyph unicode=" "  horiz-adv-x="264" />
<glyph unicode="&#x09;" horiz-adv-x="264" />
<glyph unicode="&#xa0;" horiz-adv-x="264" />
<glyph unicode="!" horiz-adv-x="493" d="M72 1292h344l-49 -831h-238zM94 0v295h309v-295h-309z" />
<glyph unicode="&#x22;" horiz-adv-x="698" d="M47 1022v270h281v-270l-129 -199h-150l133 199h-135zM381 1022v270h281v-270l-130 -199h-149l133 199h-135z" />
<glyph unicode="#" horiz-adv-x="1146" d="M29 348l51 195h164l59 188h-186l51 195h190l111 366h240l-111 -366h121l115 366h237l-113 -366h179l-52 -195h-182l-57 -188h203l-52 -195h-206l-105 -348h-240l105 348h-123l-104 -348h-240l104 348h-159zM483 543h123l58 188h-121z" />
<glyph unicode="$" horiz-adv-x="733" d="M63 113v374h256v-299h93v299l-303 185q-45 29 -46 125v379q0 49 35 82.5t84 33.5h140v123h100v-123h133q49 0 82 -31.5t33 -80.5v-330h-258v252h-93v-268l293 -175q57 -41 58 -120v-424q0 -51 -27 -83t-78 -32h-157v-137h-101v137h-135q-47 0 -78 32t-31 81z" />
<glyph unicode="%" horiz-adv-x="1126" d="M53 795v419q0 33 22.5 55.5t55.5 22.5h244q31 0 54.5 -22.5t23.5 -55.5v-419q0 -33 -23.5 -56.5t-54.5 -23.5h-244q-33 0 -55.5 23.5t-22.5 56.5zM197 0h241l482 1292h-244zM229 868q0 -6 7.5 -12t15.5 -6q23 0 22 18v271q0 8 -7 14t-15 6q-18 0 -23 -20v-271zM662 78 v422q0 33 23.5 56.5t55.5 23.5h244q31 0 54.5 -24t23.5 -56v-422q0 -33 -23.5 -55.5t-54.5 -22.5h-244q-33 0 -56 22.5t-23 55.5zM840 154q4 -18 22 -19q20 0 21 17v274q0 16 -21 16q-18 0 -22 -16v-272z" />
<glyph unicode="&#x26;" horiz-adv-x="800" d="M92 115v424q0 88 74 127q-74 31 -74 108v404q0 47 35 80.5t82 33.5h278v-190h-139v-260h80v151h258v-151h70v-189h-70v-653h-477q-47 0 -82 34t-35 81zM348 188h80v465h-80v-465z" />
<glyph unicode="'" horiz-adv-x="372" d="M47 1022v270h281v-270l-129 -199h-150l133 199h-135z" />
<glyph unicode="(" horiz-adv-x="395" d="M45 -53v1407q0 43 30.5 73.5t71.5 30.5h248v-143h-104v-1331h104v-142h-248q-41 0 -71.5 30t-30.5 75z" />
<glyph unicode=")" horiz-adv-x="395" d="M0 -16h104v1331h-104v143h248q41 0 71.5 -30.5t30.5 -73.5v-1407q0 -45 -29.5 -75t-72.5 -30h-248v142z" />
<glyph unicode="*" horiz-adv-x="573" d="M0 1163l66 187l139 -72l-15 152h199l-16 -152l131 74l67 -189l-151 -45l104 -117l-155 -124l-78 137l-88 -137l-152 127l103 114z" />
<glyph unicode="+" horiz-adv-x="833" d="M57 530v228h246v250h225v-250h244v-228h-244v-247h-225v247h-246z" />
<glyph unicode="," horiz-adv-x="407" d="M66 0v270h280v-270l-129 -199h-149l133 199h-135z" />
<glyph unicode="-" horiz-adv-x="575" d="M74 559v189h428v-189h-428z" />
<glyph unicode="." horiz-adv-x="391" d="M53 0v274h295v-274h-295z" />
<glyph unicode="/" horiz-adv-x="622" d="M-10 0l372 1292h263l-373 -1292h-262z" />
<glyph unicode="0" horiz-adv-x="784" d="M90 115v1063q0 47 35 80.5t84 33.5h373q47 0 82.5 -33.5t35.5 -80.5v-1063q0 -47 -35.5 -81t-82.5 -34h-373q-49 0 -84 34t-35 81zM340 188h111v914h-111v-914z" />
<glyph unicode="1" horiz-adv-x="524" d="M35 926v172q6 0 18.5 1t42 11t53 27.5t42 58.5t18.5 96h231v-1292h-258v926h-147z" />
<glyph unicode="2" horiz-adv-x="712" d="M63 0v127q328 631 332 637l4 16v322h-82v-262h-254v336q0 49 35 82.5t84 33.5h348q47 0 84 -34.5t37 -81.5v-408q0 -35 -18 -72l-275 -508h287v-188h-582z" />
<glyph unicode="3" horiz-adv-x="737" d="M70 119v327h252v-258h90l2 404h-127v184h127v326h-90v-182h-252v256q0 49 33.5 82.5t84.5 33.5h357q47 0 83 -33.5t36 -82.5v-392q0 -80 -74 -108q33 -18 53.5 -56t20.5 -75v-426q0 -49 -35 -84t-82 -35h-363q-49 0 -82.5 35t-33.5 84z" />
<glyph unicode="4" horiz-adv-x="747" d="M35 266v172l213 854h264l-207 -837h131v260h254v-715h-254v266h-401z" />
<glyph unicode="5" horiz-adv-x="712" d="M70 119v346l252 41v-318h69v492h-321v612h585v-190h-333v-219h217q47 0 81.5 -41t34.5 -90v-633q0 -49 -33.5 -84t-82.5 -35h-355q-47 0 -80.5 35t-33.5 84z" />
<glyph unicode="6" horiz-adv-x="737" d="M74 115v1061q0 49 34.5 82.5t84.5 33.5h348q49 0 82.5 -33.5t33.5 -82.5v-256h-251v182h-80v-320h221q51 0 85 -34.5t34 -81.5v-551q0 -47 -34 -81t-85 -34h-354q-47 0 -83 34t-36 81zM326 188h88v408h-88v-408z" />
<glyph unicode="7" horiz-adv-x="593" d="M53 1102v190h500v-123l-184 -1169h-256l88 586h-129l26 180h135l56 336h-236z" />
<glyph unicode="8" horiz-adv-x="720" d="M72 119v12v500q0 70 73 106q-31 12 -52 42t-21 67v332q0 47 34.5 80.5t83.5 33.5h342q47 0 81 -33.5t34 -80.5v-332q0 -82 -72 -109q72 -35 72 -106v-500v-12q0 -49 -33.5 -84t-81.5 -35h-342q-49 0 -83.5 35t-34.5 84zM324 188h92v471h-92v-471zM324 829h92v273h-92 v-273z" />
<glyph unicode="9" horiz-adv-x="743" d="M72 627v549q0 47 33.5 80.5t84.5 33.5h355q47 0 83 -33.5t36 -80.5v-1061q0 -49 -35 -83t-84 -34h-348q-49 0 -83 34t-34 83v256l252 41v-224h80v322h-222q-51 0 -84.5 34t-33.5 83zM324 694h88v408h-88v-408z" />
<glyph unicode=":" horiz-adv-x="428" d="M63 0v274h295v-274h-295zM63 569v275h295v-275h-295z" />
<glyph unicode=";" horiz-adv-x="423" d="M63 569v275h295v-275h-295zM70 0v270h286v-270l-129 -199h-149l133 199h-141z" />
<glyph unicode="&#x3c;" horiz-adv-x="563" d="M23 578v143l380 276l150 -227l-287 -121l287 -125l-150 -227z" />
<glyph unicode="=" horiz-adv-x="661" d="M61 401v189h541v-189h-541zM61 709v188h541v-188h-541z" />
<glyph unicode="&#x3e;" horiz-adv-x="569" d="M16 524l287 125l-287 121l150 227l381 -276v-143l-381 -281z" />
<glyph unicode="?" horiz-adv-x="720" d="M61 897v279q0 49 35 82.5t84 33.5h350q49 0 85 -33.5t36 -82.5v-328q0 -41 -20 -72l-150 -201v-2v-145h-256v223l172 207v244h-82v-205h-254zM201 0v295h309v-295h-309z" />
<glyph unicode="@" horiz-adv-x="1060" d="M61 109v1083q0 43 30 71.5t77 28.5h731q102 0 102 -108v-799q0 -31 -24.5 -54.5t-56.5 -23.5h-445q-72 0 -72 74v332q0 119 78 189.5t201 55.5q18 -2 34.5 -9t24.5 -13l7 -6v172h-431v-914h469v-188h-626q-43 0 -71 30t-28 79zM645 496h103v196q0 90 -37 90 q-39 0 -52.5 -25.5t-13.5 -86.5v-174z" />
<glyph unicode="A" horiz-adv-x="757" d="M14 0l189 1292h350l188 -1292h-243l-35 293h-170l-37 -293h-242zM315 494h121l-57 544h-4z" />
<glyph unicode="B" horiz-adv-x="751" d="M68 0v1292h495q47 0 83 -35.5t36 -85.5v-372q0 -78 -70 -109q31 -18 50.5 -54t19.5 -73v-442q0 -47 -36 -84t-83 -37h-495zM319 188h74q14 0 24.5 10.5t10.5 24.5v326q0 37 -35 37h-74v-398zM319 776h74q35 0 35 37v252q0 14 -10 25.5t-25 11.5h-74v-326z" />
<glyph unicode="C" horiz-adv-x="749" d="M74 119v1057q0 49 34.5 82.5t84.5 33.5h362q49 0 84 -33.5t35 -82.5v-359h-254v285h-94v-914h94v291h254v-360q0 -51 -35 -85t-84 -34h-362q-49 0 -84 35t-35 84z" />
<glyph unicode="D" horiz-adv-x="743" d="M70 0v1292h469q49 0 97 -44t48 -101v-1002q0 -55 -44 -100t-101 -45h-469zM322 188h61q18 0 31.5 14.5t13.5 33.5v817q0 49 -45 49h-61v-914z" />
<glyph unicode="E" horiz-adv-x="559" d="M72 0v1292h448v-190h-194v-283h184l-21 -198h-163v-433h194v-188h-448z" />
<glyph unicode="F" horiz-adv-x="557" d="M72 0v1292h444v-190h-192l-2 -285h186l-21 -196h-163v-621h-252z" />
<glyph unicode="G" horiz-adv-x="745" d="M72 119v1057q0 49 34.5 82.5t83.5 33.5h377q51 0 85 -33.5t34 -82.5v-353h-252v279h-110v-914h110v349h-57l20 190h289v-608q0 -51 -34 -85t-85 -34h-377q-49 0 -83.5 34t-34.5 85z" />
<glyph unicode="H" horiz-adv-x="755" d="M72 0v1292h252v-487h116v487h252v-1292h-252v608h-116v-608h-252z" />
<glyph unicode="I" horiz-adv-x="428" d="M84 0v1292h254v-1292h-254z" />
<glyph unicode="J" horiz-adv-x="708" d="M45 119v336l252 37v-304h78v1104h254v-1173q0 -49 -35 -84t-84 -35h-348q-49 0 -83 34t-34 85z" />
<glyph unicode="K" horiz-adv-x="745" d="M70 0v1292h252v-528h4l135 528h248l-150 -577l162 -715h-250l-145 635h-4v-635h-252z" />
<glyph unicode="L" horiz-adv-x="530" d="M72 0v1292h254v-1104h172v-188h-426z" />
<glyph unicode="M" horiz-adv-x="1089" d="M88 0v1292h391l68 -966h4l67 966h386v-1292h-224v1098h-8l-96 -1098h-262l-92 1098h-11v-1098h-223z" />
<glyph unicode="N" horiz-adv-x="868" d="M80 0v1292h399l90 -1097h4v1097h222v-1292h-394l-94 1092h-6v-1092h-221z" />
<glyph unicode="O" horiz-adv-x="741" d="M72 115v1061q0 47 34.5 81.5t83.5 34.5h357q49 0 84 -34.5t35 -81.5v-1061q0 -47 -35 -81t-84 -34h-357q-49 0 -83.5 34t-34.5 81zM324 188h90v914h-90v-914z" />
<glyph unicode="P" horiz-adv-x="702" d="M68 0v1292h444q49 0 97 -44t48 -101v-488q0 -55 -45 -100t-100 -45h-188v-514h-256zM324 709h28q20 0 34.5 13t14.5 32v301q0 20 -13 34.5t-36 14.5h-28v-395z" />
<glyph unicode="Q" horiz-adv-x="751" d="M74 115v1056q0 49 34.5 84t84.5 35h360q51 0 85 -33.5t34 -85.5v-1056q0 -49 -34 -82t-85 -33h-119q8 -10 17 -14q92 -37 174 -37l-66 -164q-72 10 -157 72.5t-113 142.5h-96q-49 0 -84 33t-35 82zM326 188h94v914h-94v-914z" />
<glyph unicode="R" horiz-adv-x="720" d="M72 0v1292h463q47 0 82.5 -35.5t35.5 -85.5v-387q0 -96 -75 -129q76 -43 75 -147v-508h-254v498q0 25 -10 41t-27 16h-40v-555h-250zM322 748h40q14 0 25.5 11t11.5 25v281q0 14 -11 25.5t-26 11.5h-40v-354z" />
<glyph unicode="S" horiz-adv-x="716" d="M70 113v329h256v-254h67v258l-276 261q-47 41 -47 124v345q0 49 34.5 82.5t81.5 33.5h349q49 0 82.5 -33.5t33.5 -82.5v-328h-252v254h-73v-248l262 -236l20 -20q20 -23 25.5 -31t13.5 -31.5t8 -48.5v-374q0 -47 -38.5 -80t-90.5 -33h-340q-49 0 -82.5 32t-33.5 81z" />
<glyph unicode="T" horiz-adv-x="557" d="M37 1102v190h483v-190h-114v-1102h-254v1102h-115z" />
<glyph unicode="U" horiz-adv-x="743" d="M72 119v1173h252v-1104h92v1104h252v-1173q0 -49 -35 -84t-82 -35h-361q-51 0 -84.5 34t-33.5 85z" />
<glyph unicode="V" horiz-adv-x="606" d="M23 1292h233l41 -946h6l45 946h234l-136 -1292h-292z" />
<glyph unicode="W" horiz-adv-x="956" d="M31 1292h227l51 -956h2l43 956h256l56 -956h6l33 956h219l-88 -1292h-301l-41 745h-7l-41 -745h-294z" />
<glyph unicode="X" horiz-adv-x="731" d="M37 0l156 690l-148 602h256l86 -463h6l72 463h240l-109 -600l113 -692h-260l-80 582h-9l-65 -582h-258z" />
<glyph unicode="Y" horiz-adv-x="622" d="M14 1292h254l56 -475l45 475h243l-159 -784v-508h-254v508z" />
<glyph unicode="Z" horiz-adv-x="567" d="M51 0v188l219 914h-219v190h467v-190l-213 -914h215v-188h-469z" />
<glyph unicode="[" horiz-adv-x="397" d="M35 -158v1616h362v-143h-106v-1331h106v-142h-362z" />
<glyph unicode="\" horiz-adv-x="622" d="M-10 1292h262l373 -1292h-263z" />
<glyph unicode="]" horiz-adv-x="393" d="M2 -16h107v1331h-107v143h363v-1616h-363v142z" />
<glyph unicode="^" horiz-adv-x="518" d="M-2 1229l207 319h98l209 -319h-193l-65 143l-68 -143h-188z" />
<glyph unicode="_" horiz-adv-x="413" d="M0 0v188h414v-188h-414z" />
<glyph unicode="`" horiz-adv-x="352" d="M-31 1638h248l137 -256h-137z" />
<glyph unicode="a" horiz-adv-x="757" d="M14 0l189 1292h350l188 -1292h-243l-35 293h-170l-37 -293h-242zM315 494h121l-57 544h-4z" />
<glyph unicode="b" horiz-adv-x="739" d="M68 0v1292h495q47 0 83 -35.5t36 -85.5v-372q0 -78 -70 -109q31 -18 50.5 -54t19.5 -73v-442q0 -47 -36 -84t-83 -37h-495zM319 188h74q14 0 24.5 10.5t10.5 24.5v326q0 37 -35 37h-74v-398zM319 776h74q35 0 35 37v252q0 14 -10 25.5t-25 11.5h-74v-326z" />
<glyph unicode="c" horiz-adv-x="739" d="M66 119v1057q0 49 34.5 82.5t83.5 33.5h363q49 0 84 -33.5t35 -82.5v-359h-254v285h-95v-914h95v291h254v-360q0 -51 -35 -85t-84 -34h-363q-49 0 -83.5 35t-34.5 84z" />
<glyph unicode="d" horiz-adv-x="751" d="M70 0v1292h469q49 0 97 -44t48 -101v-1002q0 -55 -44 -100t-101 -45h-469zM322 188h61q18 0 31.5 14.5t13.5 33.5v817q0 49 -45 49h-61v-914z" />
<glyph unicode="e" horiz-adv-x="567" d="M72 0v1292h448v-190h-194v-283h184l-21 -198h-163v-433h194v-188h-448z" />
<glyph unicode="f" horiz-adv-x="573" d="M72 0v1292h444v-190h-192l-2 -285h186l-21 -196h-163v-621h-252z" />
<glyph unicode="g" horiz-adv-x="749" d="M72 119v1057q0 49 34.5 82.5t83.5 33.5h377q51 0 85 -33.5t34 -82.5v-353h-252v279h-110v-914h110v349h-57l20 190h289v-608q0 -51 -34 -85t-85 -34h-377q-49 0 -83.5 34t-34.5 85z" />
<glyph unicode="h" horiz-adv-x="759" d="M72 0v1292h252v-487h116v487h252v-1292h-252v608h-116v-608h-252z" />
<glyph unicode="i" horiz-adv-x="417" d="M78 0v1292h254v-1292h-254z" />
<glyph unicode="j" horiz-adv-x="708" d="M45 119v336l252 37v-304h78v1104h254v-1173q0 -49 -35 -84t-84 -35h-348q-49 0 -83 34t-34 85z" />
<glyph unicode="k" horiz-adv-x="745" d="M70 0v1292h252v-528h4l135 528h248l-150 -577l162 -715h-250l-145 635h-4v-635h-252z" />
<glyph unicode="l" horiz-adv-x="518" d="M72 0v1292h254v-1104h172v-188h-426z" />
<glyph unicode="m" horiz-adv-x="1097" d="M88 0v1292h391l68 -966h4l67 966h386v-1292h-224v1098h-8l-96 -1098h-262l-92 1098h-11v-1098h-223z" />
<glyph unicode="n" horiz-adv-x="860" d="M80 0v1292h399l90 -1097h4v1097h222v-1292h-394l-94 1092h-6v-1092h-221z" />
<glyph unicode="o" horiz-adv-x="737" d="M72 115v1061q0 47 34.5 81.5t83.5 34.5h357q49 0 84 -34.5t35 -81.5v-1061q0 -47 -35 -81t-84 -34h-357q-49 0 -83.5 34t-34.5 81zM324 188h90v914h-90v-914z" />
<glyph unicode="p" horiz-adv-x="716" d="M68 0v1292h444q49 0 97 -44t48 -101v-488q0 -55 -45 -100t-100 -45h-188v-514h-256zM324 709h28q20 0 34.5 13t14.5 32v301q0 20 -13 34.5t-36 14.5h-28v-395z" />
<glyph unicode="q" horiz-adv-x="755" d="M74 115v1056q0 49 34.5 84t84.5 35h360q51 0 85 -33.5t34 -85.5v-1056q0 -49 -34 -82t-85 -33h-119q8 -10 17 -14q92 -37 174 -37l-66 -164q-72 10 -157 72.5t-113 142.5h-96q-49 0 -84 33t-35 82zM326 188h94v914h-94v-914z" />
<glyph unicode="r" horiz-adv-x="729" d="M72 0v1292h463q47 0 82.5 -35.5t35.5 -85.5v-387q0 -96 -75 -129q76 -43 75 -147v-508h-254v498q0 25 -10 41t-27 16h-40v-555h-250zM322 748h40q14 0 25.5 11t11.5 25v281q0 14 -11 25.5t-26 11.5h-40v-354z" />
<glyph unicode="s" horiz-adv-x="729" d="M70 113v329h256v-254h67v258l-276 261q-47 41 -47 124v345q0 49 34.5 82.5t81.5 33.5h349q49 0 82.5 -33.5t33.5 -82.5v-328h-252v254h-73v-248l262 -236l20 -20q20 -23 25.5 -31t13.5 -31.5t8 -48.5v-374q0 -47 -38.5 -80t-90.5 -33h-340q-49 0 -82.5 32t-33.5 81z" />
<glyph unicode="t" horiz-adv-x="555" d="M37 1102v190h483v-190h-114v-1102h-254v1102h-115z" />
<glyph unicode="u" horiz-adv-x="739" d="M72 119v1173h252v-1104h92v1104h252v-1173q0 -49 -35 -84t-82 -35h-361q-51 0 -84.5 34t-33.5 85z" />
<glyph unicode="v" horiz-adv-x="606" d="M23 1292h233l41 -946h6l45 946h234l-136 -1292h-292z" />
<glyph unicode="w" horiz-adv-x="946" d="M31 1292h227l51 -956h2l43 956h256l56 -956h6l33 956h219l-88 -1292h-301l-41 745h-7l-41 -745h-294z" />
<glyph unicode="x" horiz-adv-x="753" d="M37 0l156 690l-148 602h256l86 -463h6l72 463h240l-109 -600l113 -692h-260l-80 582h-9l-65 -582h-258z" />
<glyph unicode="y" horiz-adv-x="632" d="M14 1292h254l56 -475l45 475h243l-159 -784v-508h-254v508z" />
<glyph unicode="z" horiz-adv-x="565" d="M51 0v188l219 914h-219v190h467v-190l-213 -914h215v-188h-469z" />
<glyph unicode="{" horiz-adv-x="430" d="M0 571v156l104 4v625q0 41 30 71.5t71 30.5h225v-143h-63v-563q0 -82 -72 -99v-6q33 -8 52.5 -34.5t19.5 -61.5v-567h63v-142h-225q-41 0 -71 30t-30 71v624z" />
<glyph unicode="|" horiz-adv-x="415" d="M86 -410v2048h252v-2048h-252z" />
<glyph unicode="}" horiz-adv-x="430" d="M0 -16h63v567q0 35 19.5 61.5t52.5 34.5v6q-72 16 -72 99v563h-63v143h225q41 0 71 -30.5t30 -71.5v-625l104 -4v-156l-104 -4v-624q0 -41 -30 -71t-71 -30h-225v142z" />
<glyph unicode="~" horiz-adv-x="606" d="M12 543q0 244 183 243q53 0 106 -27.5t86 -27.5q25 0 37 66h172q-6 -246 -188 -246q-53 0 -107.5 26.5t-87.5 26.5q-12 0 -20.5 -15.5t-8.5 -31.5l-2 -14h-170z" />
<glyph unicode="&#xa2;" horiz-adv-x="757" d="M78 119v1057q0 49 34.5 82.5t84.5 33.5h131v119h98v-119h133q49 0 84 -33.5t35 -82.5v-353h-254v279h-94v-914h94v252h254v-321q0 -51 -35 -85t-84 -34h-133v-135h-98v135h-131q-49 0 -84 35t-35 84z" />
<glyph unicode="&#xa5;" horiz-adv-x="835" d="M31 410v92h258l-13 65h-245v95h225l-170 630h281l55 -508l43 508h270l-149 -630h207v-95h-226l-8 -65h234v-92h-244v-410h-252v410h-266z" />
<glyph unicode="&#xa8;" horiz-adv-x="520" d="M78 1397v145h145v-145h-145zM303 1395v147h146v-147h-146z" />
<glyph unicode="&#xa9;" horiz-adv-x="958" d="M59 178v946q0 168 179 168h495q170 0 170 -178v-946q0 -168 -174 -168h-502q-168 0 -168 178zM217 182q0 -25 21 -24h485q29 0 29 20v934q0 27 -25 27h-487q-23 0 -23 -25v-932zM309 344v602q0 41 29 72t70 31h159q41 0 70 -31t29 -72v-246h-148v209h-61v-530h61v217h148 v-252q0 -41 -29 -70.5t-70 -29.5h-159q-41 0 -70 29.5t-29 70.5z" />
<glyph unicode="&#xab;" horiz-adv-x="989" d="M2 578v143l340 338l170 -207l-225 -203l225 -207l-170 -206zM391 647l430 391l170 -207l-280 -182l280 -186l-170 -207z" />
<glyph unicode="&#xad;" horiz-adv-x="575" d="M74 559v189h428v-189h-428z" />
<glyph unicode="&#xae;" horiz-adv-x="958" d="M59 178v946q0 168 179 168h495q170 0 170 -178v-946q0 -168 -174 -168h-502q-168 0 -168 178zM217 182q0 -25 21 -24h485q29 0 29 20v934q0 27 -25 27h-487q-23 0 -23 -25v-932zM311 250v792h254q39 0 69 -29.5t30 -68.5v-201q0 -39 -31 -77q31 -39 31 -84v-332h-148v348 l2 2h-63v-350h-144zM455 733h61v176h-61v-176zM516 729v4h4q-4 0 -4 -4zM516 909v4q0 -4 4 -4h-4z" />
<glyph unicode="&#xb4;" horiz-adv-x="358" d="M2 1382l137 256h248l-248 -256h-137z" />
<glyph unicode="&#xb8;" horiz-adv-x="311" d="M2 -221q74 4 108.5 20.5t32.5 38t-14 46t-27.5 47t-11.5 42t37 27.5h125q-37 -14 -40 -41t16.5 -55.5t31.5 -65.5t11 -72.5t-51 -73.5t-152 -71z" />
<glyph unicode="&#xbb;" horiz-adv-x="1003" d="M-4 463l280 186l-280 182l170 207l430 -391l-430 -391zM475 442l225 207l-225 203l170 207l340 -338v-143l-340 -342z" />
<glyph unicode="&#x2c6;" horiz-adv-x="450" d="M18 1378l132 199h163l131 -199h-92l-121 95l-116 -95h-97z" />
<glyph unicode="&#x2da;" horiz-adv-x="395" d="M49 1507.5q0 57.5 41 98.5t98.5 41t98.5 -41t41 -98.5t-42 -98.5t-98 -41q-57 0 -98 41t-41 98.5zM147 1507.5q0 -16.5 12.5 -30t29 -13.5t28.5 13.5t12 30t-12 28.5t-28.5 12t-29 -12t-12.5 -28.5z" />
<glyph unicode="&#x2dc;" horiz-adv-x="495" d="M29 1384q2 80 39.5 128.5t107.5 48.5q45 0 82 -30t49 -30q39 0 45 68h117q-8 -178 -150 -178q-33 0 -73.5 28.5t-57.5 28.5q-20 0 -31.5 -15.5t-13.5 -31.5v-17h-114z" />
<glyph unicode="&#x5b0;" d="M-98 -174q0 43 26.5 73.5t71.5 30.5t71.5 -30.5t26.5 -73.5t-26.5 -74t-71.5 -31t-71.5 31t-26.5 74zM-98 -424q0 41 26.5 71.5t71.5 30.5t71.5 -30.5t26.5 -71.5q0 -47 -26.5 -77.5t-71.5 -30.5t-71.5 30.5t-26.5 77.5z" />
<glyph unicode="&#x5b1;" d="M-406 -188q0 45 27 75.5t72 30.5t72.5 -30.5t27.5 -75.5q0 -41 -27.5 -72t-72.5 -31t-72 31t-27 72zM-268 -438q0 43 26.5 74.5t71.5 31.5t71.5 -31.5t26.5 -74.5t-26.5 -74t-71.5 -31t-71.5 31t-26.5 74zM-123 -188q0 45 26.5 75.5t71.5 30.5t73 -30.5t28 -75.5 q0 -41 -28 -72t-73 -31t-71.5 31t-26.5 72zM141 -188q0 45 28 75.5t73 30.5t71.5 -30.5t26.5 -75.5q0 -41 -26.5 -72t-71.5 -31t-73 31t-28 72zM141 -438q0 43 28 74.5t73 31.5t71.5 -31.5t26.5 -74.5t-26.5 -74t-71.5 -31t-73 32t-28 73z" />
<glyph unicode="&#x5b2;" d="M-350 -127h469v-129h-469v129zM184 -203q0 43 28 74t71 31q45 0 71.5 -31t26.5 -74t-26.5 -73.5t-71.5 -30.5q-43 0 -71 30.5t-28 73.5zM184 -446q0 43 28 73.5t71 30.5q45 0 71.5 -30.5t26.5 -73.5q0 -45 -26.5 -76t-71.5 -31q-43 0 -71 31t-28 76z" />
<glyph unicode="&#x5b3;" d="M-383 -127h467v-129h-164v-264h-135v264h-168v129zM143 -193q0 43 27 74t70 31t72.5 -33t29.5 -76t-29.5 -72.5t-72.5 -29.5t-70 31.5t-27 74.5zM143 -451q0 43 27 75t70 32t72.5 -33t29.5 -76t-29.5 -72.5t-72.5 -29.5t-70 31.5t-27 72.5z" />
<glyph unicode="&#x5b4;" d="M-100 -279q0 45 26.5 74t71.5 29q41 0 69.5 -32t28.5 -75t-28.5 -72.5t-69.5 -29.5q-45 0 -71.5 31.5t-26.5 74.5z" />
<glyph unicode="&#x5b5;" d="M-223 -256q0 43 28.5 74.5t69.5 31.5q45 0 72.5 -31.5t27.5 -74.5t-27.5 -73.5t-72.5 -30.5q-41 0 -69.5 31.5t-28.5 72.5zM25 -256q0 43 28.5 74.5t73.5 31.5q41 0 68.5 -31.5t27.5 -74.5q0 -41 -27.5 -72.5t-68.5 -31.5q-45 0 -73.5 30.5t-28.5 73.5z" />
<glyph unicode="&#x5b6;" d="M-252 -250q0 41 27.5 73t72.5 32q41 0 70 -32t29 -73q0 -43 -29 -76.5t-70 -33.5q-45 0 -72.5 33.5t-27.5 76.5zM-98 -479q0 45 26.5 76.5t71.5 31.5t71.5 -31.5t26.5 -76.5q0 -41 -26.5 -72t-71.5 -31t-71.5 31t-26.5 72zM53 -250q0 41 29 73t70 32q45 0 72.5 -32 t27.5 -73q0 -43 -27.5 -74.5t-72.5 -31.5q-41 0 -70 31.5t-29 74.5z" />
<glyph unicode="&#x5b7;" d="M-246 -176h492v-131h-492v131z" />
<glyph unicode="&#x5b8;" d="M-258 -176h516v-131h-188v-238h-138v238h-190v131z" />
<glyph unicode="&#x5b9;" d="M-117 1620q0 49 33 87t84 38t84 -38t33 -87q0 -53 -33 -88t-84 -35t-84 35t-33 88z" />
<glyph unicode="&#x5bb;" d="M-369 -184q0 41 26 70.5t69 29.5q45 0 73.5 -29.5t28.5 -74.5t-28.5 -75t-73.5 -30q-43 0 -69 31t-26 78zM-170 -342q0 41 28.5 72.5t69.5 31.5q47 0 74 -30.5t27 -77.5q0 -45 -27 -74t-74 -29q-41 0 -69.5 31t-28.5 76zM33 -498q0 43 26.5 74t69.5 31t72.5 -32t29.5 -75 t-28.5 -72.5t-73.5 -29.5q-43 0 -69.5 30.5t-26.5 73.5z" />
<glyph unicode="&#x5bc;" d="M-117 662q0 49 33 86.5t84 37.5t84 -37.5t33 -86.5q0 -53 -33 -87t-84 -34t-84 34t-33 87z" />
<glyph unicode="&#x5bd;" d="M-80 -90h158v-494h-158v494z" />
<glyph unicode="&#x5be;" horiz-adv-x="458" d="M43 1102v190h375v-190h-375z" />
<glyph unicode="&#x5c0;" horiz-adv-x="458" d="M100 0v1292h252v-1292h-252z" />
<glyph unicode="&#x5c1;" d="M-117 1530q0 47 33 84t84 37t84 -37t33 -84q0 -53 -33 -88t-84 -35t-84 35t-33 88z" />
<glyph unicode="&#x5c2;" d="M-117 1595.5q0 51.5 33 88t84 36.5t84 -36.5t33 -88t-33 -86t-84 -34.5t-84 34.5t-33 86z" />
<glyph unicode="&#x5c3;" horiz-adv-x="376" d="M61 0v412h250v-412h-250zM61 627v409h250v-409h-250z" />
<glyph unicode="&#x5c4;" d="M-117 1595.5q0 51.5 33 88t84 36.5t84 -36.5t33 -88t-33 -86t-84 -34.5t-84 34.5t-33 86z" />
<glyph unicode="&#x5d0;" horiz-adv-x="864" d="M68 0v578q0 92 52 160.5t148 80.5l-196 473h243l226 -583q31 14 30 55v338h-77v190h313v-514q0 -221 -191 -256l207 -522h-243l-240 641q-35 -12 -35 -70v-385h105l-35 -186h-307z" />
<glyph unicode="&#x5d1;" horiz-adv-x="579" d="M35 0v188h217l-51 107v807h-166v190h436v-1024q0 -31 2 -45t17.5 -25.5t48.5 -9.5v-188h-504z" />
<glyph unicode="&#x5d2;" horiz-adv-x="626" d="M-35 0l70 188h215v914h-178v190h356q90 0 90 -88v-1204h-201l-61 147l-49 -147h-242z" />
<glyph unicode="&#x5d3;" horiz-adv-x="604" d="M31 1102v190h512v-190h-23q-41 0 -41 -78v-1024h-268v993l61 109h-241z" />
<glyph unicode="&#x5d4;" horiz-adv-x="804" d="M72 1102v190h573q39 0 62.5 -25.5t23.5 -70.5v-1196h-270v1102h-389zM80 0v926l270 41v-967h-270z" />
<glyph unicode="&#x5d5;" horiz-adv-x="432" d="M84 0v1292h268v-1292h-268z" />
<glyph unicode="&#x5d6;" horiz-adv-x="540" d="M43 1102v190h451v-190h-48q-37 0 -48 -15.5t-9 -52.5l57 -1034h-268l-55 989l70 113h-150z" />
<glyph unicode="&#x5d7;" horiz-adv-x="831" d="M49 1102v190h615q37 0 61.5 -26.5t24.5 -65.5v-1200h-269v1102h-119v-1102h-268v999l66 103h-111z" />
<glyph unicode="&#x5d8;" horiz-adv-x="804" d="M39 1292h268l53 -1104h46q39 0 54 26t15 85v803h-76v190h346v-966q0 -160 -55 -243t-196 -83h-383z" />
<glyph unicode="&#x5d9;" horiz-adv-x="403" d="M68 584v708h270v-667z" />
<glyph unicode="&#x5da;" horiz-adv-x="571" d="M37 1102v190h465v-1450h-269l-2 1260h-194z" />
<glyph unicode="&#x5db;" horiz-adv-x="622" d="M31 0v188h254v914h-254v190h524v-1190q0 -49 -30.5 -75.5t-75.5 -26.5h-418z" />
<glyph unicode="&#x5dc;" horiz-adv-x="573" d="M16 1102v344h217v-154h299l-59 -1192q-4 -41 -33.5 -70.5t-72.5 -29.5h-273v188h121l51 914h-250z" />
<glyph unicode="&#x5dd;" horiz-adv-x="800" d="M78 0v1292h561q39 0 66.5 -28.5t27.5 -67.5v-1196h-655zM338 188h125v914h-125v-914z" />
<glyph unicode="&#x5de;" horiz-adv-x="827" d="M61 0l48 981l69 121h-104v190h579q39 0 67 -28.5t28 -67.5v-1196h-347l11 188h73v914h-106l-51 -1102h-267z" />
<glyph unicode="&#x5df;" horiz-adv-x="417" d="M74 -158v1450h268v-1450h-268z" />
<glyph unicode="&#x5e0;" horiz-adv-x="536" d="M35 0v188h127v914h-84v190h373v-1190q0 -41 -32 -71.5t-73 -30.5h-311z" />
<glyph unicode="&#x5e1;" horiz-adv-x="768" d="M43 1292h662v-1065q0 -227 -179 -227h-424zM293 1102l35 -914h80q41 0 41 50v864h-156z" />
<glyph unicode="&#x5e2;" horiz-adv-x="798" d="M31 0v188h151l-63 119v985h262v-1104h43q49 0 49 66v1038h258v-1011q0 -147 -47 -214t-172 -67h-481z" />
<glyph unicode="&#x5e3;" horiz-adv-x="792" d="M74 600v692h544q39 0 67 -28.5t28 -67.5v-1354h-271v1260h-98v-461z" />
<glyph unicode="&#x5e4;" horiz-adv-x="774" d="M66 0v188h378v914h-104v-463l-272 -41v696h544q39 0 67 -27.5t28 -66.5v-1200h-641z" />
<glyph unicode="&#x5e5;" horiz-adv-x="751" d="M-37 1292h246l203 -461v461h262v-501q0 -88 -36 -131.5t-101 -63.5l94 -178v-576h-269v547z" />
<glyph unicode="&#x5e6;" horiz-adv-x="765" d="M-33 1292h250l203 -538q20 0 24.5 13t4.5 50v475h258v-538q0 -78 -49.5 -137.5t-143.5 -77.5l166 -355v-184h-606v188h332z" />
<glyph unicode="&#x5e7;" horiz-adv-x="868" d="M53 1102v190h772l-43 -1190q-10 -102 -90 -102h-235v188h71l31 914h-176v-1260h-268v1159l59 101h-121z" />
<glyph unicode="&#x5e8;" horiz-adv-x="618" d="M25 1102v190h514v-1292h-291v1102h-223z" />
<glyph unicode="&#x5e9;" horiz-adv-x="1114" d="M78 0v1292h258v-1104h332q115 0 114 129v975h258v-995q0 -121 -86 -209t-217 -88h-659zM434 276v1016h258v-960z" />
<glyph unicode="&#x5ea;" horiz-adv-x="806" d="M14 0v188h80v813l60 101h-99v190h672v-1292h-272v1102h-99v-1000q0 -102 -104 -102h-238z" />
<glyph unicode="&#x5f3;" horiz-adv-x="372" d="M47 1022v270h281v-270l-129 -199h-150l133 199h-135z" />
<glyph unicode="&#x5f4;" horiz-adv-x="700" d="M47 1022v270h281v-270l-129 -199h-150l133 199h-135zM381 1022v270h281v-270l-130 -199h-149l133 199h-135z" />
<glyph unicode="&#x2000;" horiz-adv-x="872" />
<glyph unicode="&#x2001;" horiz-adv-x="1745" />
<glyph unicode="&#x2002;" horiz-adv-x="872" />
<glyph unicode="&#x2003;" horiz-adv-x="1745" />
<glyph unicode="&#x2004;" horiz-adv-x="581" />
<glyph unicode="&#x2005;" horiz-adv-x="436" />
<glyph unicode="&#x2006;" horiz-adv-x="290" />
<glyph unicode="&#x2007;" horiz-adv-x="290" />
<glyph unicode="&#x2008;" horiz-adv-x="218" />
<glyph unicode="&#x2009;" horiz-adv-x="349" />
<glyph unicode="&#x200a;" horiz-adv-x="96" />
<glyph unicode="&#x2010;" horiz-adv-x="575" d="M74 559v189h428v-189h-428z" />
<glyph unicode="&#x2011;" horiz-adv-x="575" d="M74 559v189h428v-189h-428z" />
<glyph unicode="&#x2012;" horiz-adv-x="575" d="M74 559v189h428v-189h-428z" />
<glyph unicode="&#x2013;" horiz-adv-x="735" d="M90 545v190h528v-190h-528z" />
<glyph unicode="&#x2014;" horiz-adv-x="862" d="M59 737h756v-190h-754z" />
<glyph unicode="&#x2018;" horiz-adv-x="372" d="M47 1022v270h281v-270l-129 -199h-150l133 199h-135z" />
<glyph unicode="&#x2019;" horiz-adv-x="372" d="M47 1022v270h281v-270l-129 -199h-150l133 199h-135z" />
<glyph unicode="&#x201a;" horiz-adv-x="372" d="M47 1022v270h281v-270l-129 -199h-150l133 199h-135z" />
<glyph unicode="&#x201c;" horiz-adv-x="702" d="M47 1022v270h281v-270l-129 -199h-150l133 199h-135zM381 1022v270h281v-270l-130 -199h-149l133 199h-135z" />
<glyph unicode="&#x201d;" horiz-adv-x="700" d="M47 1022v270h281v-270l-129 -199h-150l133 199h-135zM381 1022v270h281v-270l-130 -199h-149l133 199h-135z" />
<glyph unicode="&#x201e;" horiz-adv-x="698" d="M47 1022v270h281v-270l-129 -199h-150l133 199h-135zM381 1022v270h281v-270l-130 -199h-149l133 199h-135z" />
<glyph unicode="&#x2026;" horiz-adv-x="1159" d="M49 0v274h295v-274h-295zM424 0v274h293v-274h-293zM807 0v274h295v-274h-295z" />
<glyph unicode="&#x202f;" horiz-adv-x="349" />
<glyph unicode="&#x2039;" horiz-adv-x="700" d="M49 526v142l496 364l151 -227l-401 -207l401 -205l-151 -229z" />
<glyph unicode="&#x203a;" horiz-adv-x="700" d="M8 393l402 205l-402 207l152 227l495 -364v-142l-495 -362z" />
<glyph unicode="&#x205f;" horiz-adv-x="436" />
<glyph unicode="&#x20ac;" horiz-adv-x="806" d="M47 510v92h103v62h-103v92h103v415q0 49 35.5 85t82.5 36h332q49 0 83 -34.5t34 -86.5v-354h-252v285h-64v-346h316v-92h-316v-62h316v-92h-316v-322h64v261h252v-322v-12q0 -49 -34 -82t-83 -33h-332q-49 0 -83.5 33t-34.5 82v395h-103z" />
<glyph unicode="&#x2122;" horiz-adv-x="966" d="M33 1167v125h289v-125h-68v-518h-154v518h-67zM356 649v643h250l31 -432h10l31 432h246v-643h-146v453h-4l-51 -453h-164l-51 453h-4v-453h-148z" />
<glyph unicode="&#x25fc;" horiz-adv-x="1290" d="M0 0v1290h1290v-1290h-1290z" />
</font>
</defs>
</svg>
