<?xml version="1.0" encoding="utf-8"?>
<!-- Generator: Adobe Illustrator 23.0.1, SVG Export Plug-In . SVG Version: 6.00 Build 0)  -->
<svg version="1.1" xmlns="http://www.w3.org/2000/svg" xmlns:xlink="http://www.w3.org/1999/xlink" x="0px" y="0px"
	 viewBox="0 0 359.62 392.65" style="enable-background:new 0 0 359.62 392.65;" xml:space="preserve" class="splash">
<style type="text/css">
	.st0{fill-rule:evenodd;clip-rule:evenodd;fill:#067BBC;}
	.st1{fill-rule:evenodd;clip-rule:evenodd;fill:#1E8DC8;}
</style>
<g id="splash1">
	<path class="st0" d="M22.72,251.24c1.79,0.16,3.2-0.62,3.86-3.19C24.43,246.96,21.92,248.75,22.72,251.24z"/>
	<path class="st0" d="M40.79,207.6c-1.32,2.08,1.85,3.38,2.27,0.94C42.31,207.09,42.32,208.29,40.79,207.6z"/>
	<path class="st0" d="M56.89,235.98c0.48-0.34,0.96-0.71,1.25-1.53c-2.08-2.48-0.25-6.71-2.42-9.16
		C54.34,229.65,54.18,233.46,56.89,235.98z"/>
	<path class="st0" d="M169.53,35.12c1.06-1.27,1.95-2.84-0.58-3.63C168.2,33.13,167.65,34.67,169.53,35.12z"/>
	<path class="st0" d="M84.9,252.23c-0.92,1.28-2.32,2.55,0.01,3.41C85.08,254.42,87.04,252.4,84.9,252.23z"/>
	<path class="st0" d="M77.48,263.85c1.34-0.55,2.36-1.88,2.94-4.24C77.6,255.43,71.46,262.16,77.48,263.85z"/>
	<path class="st0" d="M253.02,18.31c1.11-0.88,3.13-2.52,2.37-4.47c-0.76-0.31-1.52-0.62-2.28-0.93
		C251.77,14.96,250.3,17.03,253.02,18.31z"/>
	<path class="st0" d="M286.87,90.12c-0.64,0.47-1.17,1.23-1.48,2.61c0.66,0.29,1.31,0.59,1.97,0.89
		C288.03,92.04,288.51,90.56,286.87,90.12z"/>
	<path class="st0" d="M304.02,80.16c-0.23-0.66-1.23-0.94-1.08-1.8C294.88,74.3,301.11,89.88,304.02,80.16z"/>
	<path class="st0" d="M170.5,55.5c-0.9,0.14-1.7,0.81-2.38,2.18C169.29,60.65,173.97,57.4,170.5,55.5z"/>
	<path class="st0" d="M147.8,57.31c0.64-1.78-1.61-2.11-1.71-0.24c0.32,0.23,0.63,0.45,0.95,0.68
		C147.24,57.32,147.5,57.2,147.8,57.31z"/>
	<path class="st0" d="M86.98,78.54c0.31-0.34,0.32-0.63,0.12-0.88c-1.35-2.37-4.18-0.95-6.28-2.51
		C79.99,78.97,84.88,77.13,86.98,78.54z"/>
	<path class="st0" d="M111.92,32.41c1.87-0.11,2.48-4.34,0.92-5.63C110.63,29.03,112.23,30.54,111.92,32.41z"/>
	<path class="st0" d="M85.83,67.58c0.62-0.13,1.13-0.91,1.63-1.75c-0.6-0.36-0.4-0.88-1.06-1.23
		C85.17,64.92,84.55,66.87,85.83,67.58z"/>
	<path class="st0" d="M72.57,84.78c0.26-2.06-0.38-3.94-2.4-5.56C69.45,81.36,70.38,83.19,72.57,84.78z"/>
	<path class="st0" d="M92.93,1.1c-0.34,3.7-0.4,7.34,1.91,10.53C95.04,7.95,96.1,4.11,92.93,1.1z"/>
	<path class="st0" d="M68.75,45.35c-0.07-1.61-1.66-2.93-3.27-4.24C63.33,43.3,67.14,45.55,68.75,45.35z"/>
	<path class="st0" d="M127.13,263.81c-3.18,0.69-4.96,5.04-2.85,7.92C125.74,269.69,128.53,266.13,127.13,263.81z"/>
	<path class="st0" d="M301.61,257.09c0.17,2.64,3.09,4.08,4.9,2C305.69,257.29,304.25,256.36,301.61,257.09z"/>
	<path class="st0" d="M99.04,273.5c3.1-0.59,3.93-2.92,3.78-6.02C99.17,267.65,98.56,270.16,99.04,273.5z"/>
	<path class="st0" d="M100.54,252.79C89.1,257.28,106.75,264.22,100.54,252.79L100.54,252.79z"/>
	<path class="st0" d="M32.41,236.02c1.87-0.15,3.54-0.44,2.94-2.48C33.65,233.21,31.77,233.18,32.41,236.02z"/>
	<path class="st0" d="M273.37,83.53c-5.24-0.27-5.22,3.5-7.83,5.26C267.81,91.06,273.6,87.01,273.37,83.53z"/>
	<path class="st0" d="M114.28,43.96c1.39,5.24-3.96,5.28-3.95,9.45C112.97,54.06,119.14,45.39,114.28,43.96z"/>
	<path class="st0" d="M148.1,26.64c1.64-0.32,0.97-2.43,0.73-4.2C146.32,22.24,146.97,25.77,148.1,26.64z"/>
	<path class="st0" d="M265.7,102.75c-0.8,1.03-0.35,2.1,0.8,2.4c0.34-0.4,0.67-0.79,1.01-1.18
		C267.08,103,266.56,102.93,265.7,102.75z"/>
	<path class="st0" d="M246.32,106.94c0.7,1.11,1.75,0.3,1.69-0.56C247.39,105.63,246.85,106.23,246.32,106.94z"/>
	<path class="st0" d="M193.18,54.06c0.34-0.25,0.71-0.16,1.03-0.74c-0.63-0.78-0.32-1.61-1.23-2.37c-0.25,0.91-0.83,1.84-0.26,2.7
		C192.87,53.78,193.03,53.92,193.18,54.06z"/>
	<path class="st0" d="M211.1,30.12c-0.05-0.86-1.19-1.52-1.74-0.33C209.97,30.43,210.58,30.95,211.1,30.12z"/>
	<path class="st0" d="M207.96,28.1c-0.96-1.15-2.56,0.68-2.7,1.74c0.31,0.28,0.61,0.55,0.91,0.83
		C207.23,30.49,207.93,28.9,207.96,28.1z"/>
	<path class="st0" d="M183.56,52.02c2.85,1.53,4.9-2.93,2.9-5.32c-0.37-0.44-1.56,0.15-2.03-1.43
		C180.97,47.41,181.56,50.95,183.56,52.02z"/>
	<path class="st0" d="M172.13,62.6c0.38,0.35,0.76,0.7,1.14,1.04c0.37-0.4,0.57-0.78,0.58-1.16
		C173.25,62.08,172.65,61.66,172.13,62.6z"/>
	<path class="st0" d="M172.02,60.82C172.55,56.75,168.43,60.44,172.02,60.82L172.02,60.82z"/>
	<path class="st0" d="M182.43,44.29c0.2-0.23,0.4-0.47,0.6-0.71c-0.04-0.52-0.58-1-1.17-1.48
		C180.79,42.91,181.55,43.61,182.43,44.29z"/>
	<path class="st0" d="M174.12,45.96c-0.16-0.73-0.82-2.11-1.86-2.11C171.25,44.82,173.11,47.04,174.12,45.96z"/>
	<path class="st0" d="M157.7,59.54c-0.46-0.56-0.91-0.76-1.34-0.8c-0.72,0.5,0.05,0.89-0.35,1.36
		C156.9,60.73,157.4,60.49,157.7,59.54z"/>
	<path class="st0" d="M117.57,45.72c-0.92,1.85-0.24,3.59,1.19,5.27C119.57,49.26,119.03,46.56,117.57,45.72z"/>
	<path class="st0" d="M285.68,377.86c0.9,5.54,4.91,8.37,4.92,14.7c0.62,0.03,1.24,0.06,1.87,0.09
		C293.73,386.56,289.79,379.24,285.68,377.86z"/>
	<path class="st0" d="M190.93,344.65c0.45,3.01-2.17,6.07,0.37,7.02C191.99,349.43,193.06,345.04,190.93,344.65z"/>
	<path class="st0" d="M221.56,363.57c0.6,0.05,0.6,0.63,1.36,0.53c1.66-1.44,1.72-7.05,1.22-9.27
		C221.39,355.36,220.94,360.88,221.56,363.57z"/>
	<path class="st0" d="M168.6,318.84c-1.63,0.02-3.07,0.24-2.99,2.19c1.24,0.06,2.66,0.3,3.31-0.31
		C169.09,319.85,168.48,319.67,168.6,318.84z"/>
	<path class="st0" d="M294.76,335.35c1.1,3.5,2.97,6.33,6.41,7.78C301.49,340.31,298.01,335.06,294.76,335.35z"/>
	<path class="st0" d="M168.72,317.45c-0.73-2.53-1.4-5.12-3.72-6.25C165.05,314.11,166.3,318,168.72,317.45z"/>
	<path class="st0" d="M341.07,337.58c0.78,0.04,1.56,0.08,2.34,0.11c0.78-1.39,0.38-2.08-0.21-3.28
		C341.24,334.41,340.37,335.94,341.07,337.58z"/>
	<path class="st0" d="M334.03,326.04c-4.86,0.34-5.13,8.98,1.31,7.07C340.57,331.55,338.25,325.75,334.03,326.04z"/>
	<path class="st0" d="M261.36,324.42c0.58-0.52,0.66-1.62,0.69-2.76C260.61,320.92,260.64,324.37,261.36,324.42z"/>
	<path class="st0" d="M130.49,296.47c-0.2,0.62-0.74,0.86-0.62,1.84c0.46,0.02,0.94,0.04,1.41,0.07
		C131.5,297.32,131.31,296.63,130.49,296.47z"/>
	<path class="st0" d="M231.9,311.33c-0.72,0.59-0.88,2.6-0.26,3.25c1.07,0.2,1.8,0.01,2.38-0.35
		C234.35,312.35,233.76,311.28,231.9,311.33z"/>
	<path class="st0" d="M320.35,315.12c-0.68,1.86,1.25,2.37,2.23,1.51C322.91,315.19,321.69,315.1,320.35,315.12z"/>
	<path class="st0" d="M200.96,304.71c-3.52-0.38,0.22-7.1-2.13-8.5c-1.62,4.59-1.02,10.96,1.24,13.6
		C201.85,308.66,200.62,306.93,200.96,304.71z"/>
	<path class="st0" d="M229.63,310.28c0.59,0.06,0.6,0.63,1.36,0.54c1.72-5.56,6.83-9.76,6.03-16.51
		C233.31,298.23,231.08,303.82,229.63,310.28z"/>
	<path class="st0" d="M150.58,300.42c-0.55-0.67-1.99-0.56-3.23-0.62C143.89,303.23,150.79,306.14,150.58,300.42z"/>
	<path class="st0" d="M224.28,295.1c-1.31,4.53-9.27,6.63-7.92,10.82c3.64-2.3,6.95-4.98,9.17-8.89
		C224.58,296.85,225.59,294.96,224.28,295.1z"/>
	<path class="st0" d="M116.75,274.81c-0.46,2.28,0.16,3.6,2.54,3.39c0.74-0.64,0.94-3.01,0.31-3.72
		C118.45,274.36,117.34,274.3,116.75,274.81z"/>
	<path class="st0" d="M295.2,271.91c-0.29,3.39,5.5,4.06,5.62,0.27C299.92,270.67,296.41,270.88,295.2,271.91z"/>
	<path class="st0" d="M323.81,272.36c-0.69,0.56-0.82,2.16-0.23,2.79c1.66,0.18,2.49-0.55,2.53-2.21
		C324.97,273.06,325.17,272.03,323.81,272.36z"/>
	<path class="st0" d="M296.19,265.42c-0.97-0.44-1.5-1.28-3.2-1.09c-0.48,1.14-0.81,2.46-0.8,4.16
		C294.12,269.52,296.47,268.39,296.19,265.42z"/>
	<path class="st0" d="M295.15,255.11c0.68,1.5,2.13,0.68,3.7,0.64c0.05-0.62,0.1-1.23,0.15-1.86
		C297.42,253.96,295,253.07,295.15,255.11z"/>
	<path class="st0" d="M356.54,251.06c-1.64,0.8-3.18,2.85-2.29,5.02c2.46,1.4,4.84-0.23,5.37-2.53
		C358.79,252.54,358.35,251.2,356.54,251.06z"/>
	<path class="st0" d="M336.95,243.58c-0.55-1.68-1.68-2.86-3.99-2.99C333.58,242.08,335.27,244.4,336.95,243.58z"/>
	<path class="st0" d="M345.62,211.8c-0.46,1.6,1.51,1.75,2.26,1.04C348.35,211.25,346.38,211.1,345.62,211.8z"/>
	<path class="st0" d="M343.52,208.9c0.47-2.29-2.55-1.51-1.54-4.28c-1.51,0.21-1.37-0.94-2.34-0.11
		C339.51,207.05,341.42,209.7,343.52,208.9z"/>
	<path class="st0" d="M334.68,201.94c-0.03,0.31-0.05,0.62-0.08,0.92c0.62,0.18,0.84,0.7,1.83,0.56c0.35-1.47,1.63-1.88,1.71-3.65
		C336.83,200.31,335.19,200.48,334.68,201.94z"/>
	<path class="st0" d="M337.21,188.06c0.19-0.85-1.62-1.72-0.17-3.74c-5.74-2.17-9.43,1.8-8.87,5.18
		C328.97,194.31,336.2,192.66,337.21,188.06z"/>
	<path class="st0" d="M306.73,187.53c-0.08-1.08-0.13-2.2-1.72-1.95c-0.06,0.78-0.13,1.55-0.19,2.33
		C305.64,187.98,306.28,187.87,306.73,187.53z"/>
	<path class="st0" d="M307.03,183.81C312.39,180.68,304.18,179.15,307.03,183.81L307.03,183.81z"/>
	<path class="st0" d="M338.47,178.32c-1.96-0.52-2.09,1.02-2.1,2.7c0.46,0.03,0.93,0.05,1.4,0.07
		C338.36,180.56,338.44,179.47,338.47,178.32z"/>
	<path class="st0" d="M276.4,173.47c-0.54,1.73,1.96,1.74,2.73,1.06C279.68,172.79,277.17,172.78,276.4,173.47z"/>
	<path class="st0" d="M326.73,172.62c0.73-0.87,1.77-2.92,0.8-4.16C325.45,168.13,324.51,172.41,326.73,172.62z"/>
	<path class="st0" d="M295.36,165.5c0.24-1.06,0.07-1.79-0.28-2.34c-1.25-0.4-1.02,0.88-1.95,0.84
		C293.21,165.65,293.96,166.02,295.36,165.5z"/>
	<path class="st0" d="M243.53,103.75C243.48,110.1,249.28,101.55,243.53,103.75L243.53,103.75z"/>
	<path class="st0" d="M37.24,197.57c1.78-0.25,2.41,0.91,4.63,0.1c1.95,5.31,7.06,9.49,12.31,13.09c-2.17,0.06-4.16,0.75-4.73,2.13
		c-2.03,4.88,9.28,11.33,11.66,1.45c-0.06-0.47-0.26-0.9-0.53-1.28c1.37-0.16,2.71-0.28,4.02-0.35c0.24,1.36,0.77,2.61,1.36,3.83
		c-0.12,0.53-0.44,1.06-0.39,1.65c0.21,2.15,1.23,3.65,2.45,5.04c-1.27,1.7-5.08,0.46-4.23,2.85c3.43,0.26,6.08,2.66,6.38,6.65
		c-0.84,2.54-2.85,2.54-3.7,5.08c2.27,2.77,4.14,0.1,6.36-0.51c-0.43,7.26,14.3,5.23,13.02,12.7c2.73,1.14,3.34-2.28,6.36-0.52
		c3.31,0.88-0.25,4.54,3.06,5.43c1.58-1.63,0.79-3.65,3.43-4.45c5.31,3.57,6.79-1.16,10.86-0.28c0.66,1.79-1.1,4.55-0.37,6.3
		c1.41-0.2,2.39-1.02,3.07-2.13c0.78,1.17,2.83,0.49,2.46-1.77c-0.51-0.21-1.02-0.42-1.53-0.63c0.37-1.7,0.29-3.52-0.05-4.75
		c1.49-1.85,1.36,0.15,3.58,0.61c-0.6-3.3,2.97-9.4,8.05-9.91c-0.55-1.31,0.34-3.21-0.41-4.45c0.54-0.67,1.19-1.07,1.87-1.44
		c0.71,1.28,1.35,2.64,2.92,3.1c0.05,0.22,0.08,0.42,0.09,0.61c-0.75-0.62-1.92-1.02-1.99,0.73c0.46-0.14,1.33,0.18,1.88,0.13
		c-0.55,1.47-2.75,1.43-2.14,3.96c0.77-0.58,1.89-0.85,2.57-0.03c-0.19,1.41-1.89,1.44-1.89,3.02c1.44,1.24,2.68-0.52,3.52-1.54
		c1.78,1.34,3.36,2.85,4.88,4.44c0.45,2.49-1.49,2.79-0.89,5.41c1.24-1.54,1.66-3.82,2.82-5.43c0.42,0.13,0.85,0.24,1.28,0.36
		c-0.46,0.78-0.96,1.52-1.42,2.2c3.21,5.06,0.88,7.44-2.37,9.38c-0.4-0.88-0.99-1.7-1.38-2.08c-0.85,0.48-1.11,1.99-0.88,3.35
		c-2.55,1.38-5.03,2.81-5.57,5.19c-0.72,3.14,1.12,6.46,3.02,9.01c4.84,0.95,6.87,0.35,10.41-0.9c-0.06,2.49,0.7,4.28,1.89,5.69
		c5.09-1.35,5.82,3.47,7.46,6.43c-0.39,1.6-1.84,1.98-1.74,4.12c2.75,1.73,4.1-1.06,6.23-1.57c1.53,1.26,3.9,1.78,4.38,3.94
		c-0.95,1.77-3.85,3.56-2.4,6.42c4.73-0.48,6.05-7.91,11.53-3.17c0.17,2.73-3.28,1.36-2.71,4.53c2.91,0.63,4.44,1.34,7.37,1.76
		c1.34-1.01-0.03-3.59,0.81-4.16c3.86-1.24,7.18-0.39,9.24,1.84c2.51-2.46,6.09-5.04,11.06-3.2c4.43-2.41,8.26-5.52,11.55-9.25
		c1.35,0.01,3.05,0.4,3.78-0.28c0.22-1.49-0.67-2.01-0.17-3.74c1.63-1.82,3.56-0.21,5.73-1.13c1.46-0.95-0.94-3.33,1.24-3.67
		c0.83,0.86,1.64,1.73,2.62,2.46c-1.06,2.21-0.22,2.73,0.6,4.23c-1.21,1.17-3.18,1.48-4.01,3.07c1.25,3.1-2.11,3.49-1.38,5.53
		c2.98,1.51,5.49-4.08,7.79-3.35c1.15,1.44,1.01,4.01,3.41,4.37c4.41-0.09,3.11-6.63,6.29-8.11c3.68,0.96,4.85,4.1,5.48,7.73
		c1.24,0.06,2.49,0.12,3.74,0.18c-0.39,4.95,4.96,4.86,6.38,8.24c-4.11,8.09-5.38,17.24-5.89,26.32c3.08,1.12,2.35-2.07,3.97-2.6
		c3.66,0.56,5.68-1.68,5.95-3.92c0.47-3.88-3.2-4.62-6.1-5.89c1.57-5.33,2.71-11.14,7.17-13.19c3.81,2.43,5.04,7.11,10.63,7.98
		c0.69-1.07,1.1-2.47,2.56-2.68c13.15,3.13,15.36-9.69,15.34-21.2c0.68-0.08,0.85-0.73,1.48-0.86c1.88,0.8,2.35,2.84,2.89,4.81
		c4.01-0.78,4.28,0.97,7.38,1.76c0.16-5.18-4.92-5.78-7.27-8.75c1.23-4.62,0.97-7.77,2.81-11.53c-1.47-1.59-2.14-3.88-1.77-7.08
		c0.65-1.46,3.99,0.13,3.93-2.14c-0.78-2.49-4.57-2.34-5.24-4.92c0.72-1.56,3.18-1.13,3.11-3.58c-1.41,0.48-3.48-0.05-3.58-1.91
		c0.64,0.37,1.24,0.76,1.79,1.15c5.43-2.06,6.49-7.16,10.73-10.05c2.87-0.57,3.63,4.27,5.71,2.1c-0.27-0.54-0.46-1.09-0.58-1.65
		c0.48,0.36,0.89,0.78,1.21,1.3c3-3.23,8.25,0.16,11.2,1c1.48-0.76-1.59-1.91,0.22-2.8c2.24,1.64,4.54,7.36,9.05,4.17
		c0.02-2.18-3.24-1.49-3.98-2.99c0.05-2.15,1.74-2.44,3.07-3.13c0.79,0.75,1.3,1.75,3.17,1.56c0.36-1.28-0.88-4.76,1.85-5.51
		c1.77-0.2,2.86,1.33,4.21,0.2c0.78-2.41-2.59-1.19-2.08-3.36c0.53-2.62,2.93-3.11,4.59-4.45c-4.86-5.02,1.36-6.66,2.19-9.69
		c0.71-2.56-0.42-4.33-1.81-6.62c1.13-2.29,3.61,0.06,5.3-1.61c0.66-4.33-6.62-1.7-7.62-4.57c0.47-3.25-2.1-3.46,0.02-6.06
		c-4.8-0.12-6.42-3.02-5.95-7.75c-2.46,0.43-2.33-1.42-2.58-2.93c-4.12,1.24-9.33,3.15-12.16-0.58c0.06-1.49,0.75-3.54-1.14-3.32
		c-1.2,0.68-0.12,3.92-1.75,4.12c-0.38,0-0.75-0.01-1.11-0.03c0.26-0.16,0.5-0.34,0.69-0.56c-1.3-1.53-3.36-1.75-5.43-1.34
		c-0.55-0.57-1.01-1.27-1.33-2.15c-1.43,0.07-1.79,1.36-3.82,0.75c-1.81-2.12,0.9-5.62-1.27-7.52c-1.17-1.33-1.26,1.14-2.88,0.79
		c-0.79-1.18-0.43-3.36-1.03-4.71c-2.78,1.12-4.63,1.48-7.02-0.34c-1.9,0.71-2.73,2.42-5.26,1.14c-0.46,1.18-1.2,2.05-2.55,2.23
		c0.36-0.43,0.72-0.91,1.07-1.51c-1.1-2.39-3.01-0.47-4.9-1.1c-2.99-6.07,5.35-6.06,9.12-5.22c0.44-1.03,0.88-2.07,1.32-3.1
		c-1.96-2.34-3.38-0.4-6.23-1.59c-1.2-0.89-0.66-2.49-0.59-3.89c1.66,0.23,4.12-0.29,4.84-1.2c0.16-1.3-0.33-1.77-0.89-2.16
		c1.13-0.25,2.11-0.81,2.44-2.76c-10.53-3.54-2.51-12.04-4.64-18.24c3.97-0.88,5.52-3.44,8.74-4.83c-0.51-1.17-1.31-1.48-2.26-1.47
		c0.52-0.85,0.99-1.81,1.39-2.91c-0.23-0.51-0.42-0.98-0.6-1.43c1.71,0.19,3.39-0.02,5.03-0.85c-1.08-0.95-3.72-1.39-5.7-0.95
		c-0.3-0.82-0.56-1.52-0.91-2.13c0.39,0.03,0.79-0.08,1.15-0.36c0.9-1.39-0.58-1.59-0.19-2.71c-0.86-0.47-1.28,0.22-2.17-0.33
		c-0.29,0.65-0.38,1.23-0.33,1.72c-0.05-0.03-0.09-0.07-0.14-0.1c-2.82-1.72-5.82-1.46-8.7-0.86c0.31-2,0.39-3.97-0.15-5.84
		c-0.59-2.03-1.76-3.7-3.31-5.09c2-1.24,3.54-3.53,3.28-5.47c-2.42,0.48-3.83,2.1-4.66,4.38c-0.25-0.17-0.5-0.35-0.76-0.51
		c1.34-0.89,2.44-2.01,2.7-3.88c-1.6,0.85-3.12,1.76-4.3,2.99c-1.78-0.89-3.78-1.58-5.88-2.1c0.53-2.82-2.99-3.64-4.43-1.48
		c-0.13,0.19-0.22,0.39-0.28,0.59c-2.13-0.29-4.28-0.45-6.36-0.51c-1.55,1.35-2.38,3.2-4.65,4.06c-1.49-1.45-2.82-2.6-3.84-4.46
		c-0.4,0.03-0.8,0.02-1.21-0.04c-0.42-1.53-0.55-3.26-0.53-5.01c0.39,0.44,0.86,0.88,1.48,1.31c1.54-0.63,1.95-2.41,0.01-3.52
		c-0.47,0.23-0.95,0.28-1.42,0.57c0.12-1.9,0.37-3.73,0.57-5.24c2.52-0.91,3.06,0.66,5.38-0.01c2-1.32,2.54-3.65,3.75-5.52
		c-1.59-3.67-4.91-5.17-8.01-6.97c1.49-3.1,2.56-6.52,4.46-9.69c-2.3-0.82-3.97-2.41-4.81-4.21c0.1-0.17,0.16-0.36,0.15-0.61
		c-0.19-0.25-0.36-0.37-0.54-0.44c-0.52-1.88-0.16-3.89,1.32-5.48c3.99,0.44,0.55,3.88,3.33,4.81c1.73-1.02,2.24-4.66,4.36-4.83
		c1.33,0.49,2.65,0.98,3.98,1.47c1.85-2.22,4.18-3.38,7.13-3.23c-0.26,1.24,0.28,2.92,2,3.35c1.71-0.64,2.04-2.18,1.41-3.41
		c0.26-1.62-1.78-2.31-2.22-3.65c2.34-2.84,7.99-7.29,4.21-9.9c0.83-1.44,2.65-0.72,3.89-1.28c-0.05,0.23-0.1,0.45-0.15,0.68
		c4.65-3.95,10.5-6.97,10.49-14.51c-4.27,3.34-8.22,6.91-9.92,12.22c-5.39-3.76-5.91-9.49-9.39-14.03
		c-3.23,1.23-4.21-1.75-6.63-2.45c-8.11-2.35-14.19,1-21.19,2.9c0.28,4.31-2.89,3.7-4.88,6.07c0.03,0.15,0.04,0.31,0.06,0.47
		c-1.57,1.23-1.49,3.83-0.72,5.96c-0.48,2.34-0.81,4.62,0.23,6.35c-0.81-0.01-1.56,0.74-2.45-0.54c-0.59,0.92-1.22,0.36-1.17,1.24
		c1.33,1.03,3.48,1.19,4.28,0.14c0.03,0.03,0.05,0.06,0.08,0.09c-0.49,1.19-1.45,1.39-1.96,2.53c-0.33,0.24-0.66,0.54-0.98,0.84
		c-1.88-0.26-3.82-0.2-5.77,0.09c-0.32-0.21-0.57-0.57-0.76-1.27c-2.34,2.6-4.87,2.26-7.55-0.01c-0.9,1.54-1.96,0.68-3.01,0.18
		c-1.19,2.8-2.48,6.49-6.09,6.47c-0.88-0.67-1.81-1.92-2.57-0.79c-0.15,0.95,2.34,1.74,1.7,2.72c-1.62,1.95-3.5,2.91-5.88,2.23
		c-0.63,0.82-0.01,1.57-1.34,2.42c-2.15,0.1-3.01-2.89-5.2-2.5c-1.36,0.08,0.1,1.18-0.88,1.93c-1.09-0.07-2.26-1.19-3.37-1.44
		c-0.63,2.01-1.28,3.18-3.51,3.73c-0.46,1.35,0.19,2.54-1.78,3.39c0.7,1.04,0.79,2.13-0.74,3.31c-1.32,0.02-2.49,0.79-3.95,0.14
		c-0.08-0.69,0.39-1.47,0.76-2.24c0.77,0.49,1.71-0.67,1.66-1.3c-0.39-0.5-0.87-0.43-1.25-0.15c0-0.04,0.01-0.09,0-0.13
		c-2.61-0.18-3.87,3.36-3.81,5.19c-0.46,0.36-0.68,0.41-0.86,0.29c0.62-1.41-0.98-3.86-1.89-5.43c-0.77,1.64-0.34,3.21,0.58,4.74
		c-0.26,1.15-1.25,2.52-2.59,3.47c-0.47-0.96-0.91-1.98-1.41-3.08c-1.45-0.34-2.89-0.64-4.44-2.31c-3.16,0.32-6.24,1.82-9.39,2.44
		c-0.43,0.81,0.72,1.52,0.16,2.34c-0.52,0.26-0.93,0.55-1.27,0.87c-0.78-0.27-1.34,0.51-2.14,0.13c-0.72-1.18-0.58-2.52,0.8-4.06
		c-0.91-1.81-2.3-0.78-3.85-1.44c0.4-1.58-1.87-2.69-0.57-4.43c-3.51-1.9-4.71-4.2-6.16-6.46c2.44-2.54,1.44-4.48,2.21-6.72
		c-2.31-0.8-1.97,2.73-4.28,2.86c-1.03,1.49,0.05,2.61-0.18,3.95c-4.18-0.91-5.53-6.68-9.49-8.6c-2.86-1.38-6.08-0.62-9.09,1.03
		c-0.23-0.28-0.58-0.45-0.88-0.29c-0.74-0.68-1.79-1.24-3.06-1.7c-0.67,1.76-0.37,3.13,0.57,4.25c-0.82,0.65-1.6,1.33-2.32,2.02
		c0,1.3,0.68,2.49-0.18,3.95c-3.35,1.77-7.22-2.57-9.42-4.99c0.59-1.39,1.53-0.98,2.15-2.19c0.19-1.34-0.69-2.5-1.07-3.74
		c-2.78-0.98-5.12,0.26-7.62,0.73c1.48,4.41,6.93,9.6,12.19,12.36c1.18,2.51-2.53,5.87-0.61,8.25c-3.91,0.69-7.6-5.58-11.9-6.07
		c1.01,4.96,15.88,7.49,8.93,13.83c-1.61-0.67-4.19-3.17-6.44-3.1c-1.92,1.65,0.27,2.57-0.81,4.07c-1.62,0.54-3.5-0.23-5.12,0.29
		c-0.08,1.22,0.52,1.98,1.42,2.55c1.08,2.11,2.58,4.36,4.71,4.29c0.24-0.7,0.28-1.43,0.15-2.13c0.55,0.32,1.04,0.71,1.38,1.2
		c0.32-0.76-0.17-1.38,0.53-2.21c0.69-0.86,1.75,0.11,2.73,0.73c-3.14,3.15-7.09,2.28-10.53,3.95c-1.73-0.6-0.36-1.75-2.09-2.35
		c-0.62,1.2-1.52,1.01-2.27,1.6c-6.94-4.46-11.77,1.53-17.97,0.72c-1.04,0.99-0.93,1.77-1.41,2.66c-0.81,0.8-1.87,0.34-2.63,1.37
		c-1.33-0.71-2.81-2.19-3.97-2.03c-0.53,2.15-1.76,2.08-3.17,3.57c0.32,1.61,1.78,0.68,2.85,1.31c0.93,4.12-4.2,3.04-6.39,2.02
		c-0.42,0.58-0.85,1.16-1.27,1.73c0.86,1.69,2.01,0.68,3.59,1.79c0.82,0.96-0.54,2.3-0.29,3.37c-1.36,1.8-3.59-0.7-4.77,2.04
		c6.2,3.69-0.81,8.08,0.21,12.33c-2.3,0.37-4.47,1.37-6.29,4.12c0.48,2.46,0.15,3.79,1.31,4.9c4.39,4.23,12.42-2.09,12.64,6.55
		c3,0.28,4.56,3.15,4.55,4.94c2.35-0.29-7.07,1.13-6.46,3.32c1.78,0.83,3.29,0.26,4.98,0.64c1.02,0.93,0.82,2.07,1.58,3.04
		c1.54,0.68,2.68-0.62,4.24,0.17c2.04,1.66-0.33,4.08,0.55,5.94c-2.76,1.42-5.52,3.53-8.36,0.25c-1.3,1.14,0,1.81-0.41,2.79
		c-5.36,1.18-7.62,5.42-7.33,9.68c2.05,1.27,0.08,3.15-0.58,4.94c-0.77-0.05-1.55-0.06-2.33-0.04c0.15-0.57,0.3-1.14-0.41-1.56
		c-0.73,0.24-1.33,1.11-1.97,1.74c-0.69,0.07-1.39,0.15-2.09,0.25c-0.52-0.33-1.04-0.67-1.57-1c-1.37,1.05,2.83,1.48,4.6,1.14
		c-0.02-0.27,0.06-0.55,0.32-0.87c0.77,0.44,0.45,0.73-0.32,0.87c0.02,0.29,0.16,0.56,0.32,0.82c-0.37,0.02-0.74,0.04-1.12,0.04
		c0.13,0.8,0.14,1.58,0.05,2.33c-1.87,1.28-3.88,2.81-2.42,4.39c-0.97,1.05-2.48-0.56-3.38,0.89c0.36,0.36,0.67,0.73,0.94,1.1
		c-1.15,0.43-0.1-0.16-1.44-0.41c-2.08,0.48-1.18,3.74-4.52,4.24c-2.48,0.37-3.36,5.98-3.85,7.48
		C33.91,197.56,37.24,197.57,37.24,197.57z M105.39,81.14c-1.12,0.33-2.45-0.39-3.85-1.44c0.36-0.46,0.38-0.87,0.39-1.28
		C103.29,77.88,106.23,79.6,105.39,81.14z M143.43,232.51c-0.32-0.24-0.61-0.52-0.82-0.87c0.05-0.3,0.08-0.61,0.11-0.91
		c0.28-0.08,0.55-0.18,0.82-0.28C143.41,231.22,143.39,231.89,143.43,232.51z M161.05,92.49c-0.11-0.14-0.23-0.28-0.34-0.43
		c-0.77-0.02-1.37,0.06-1.91,0.2c-0.84-0.53-1.67-0.86-2.47-0.81c0.32,0.43,0.71,0.86,1.13,1.29c-0.61,0.27-1.19,0.55-1.9,0.74
		c-2-0.02-2.6-1.79-4.84-1.49c-0.19-0.77-0.29-1.66-0.39-2.54c1.17-2.44,1.35-5.15,1.57-7.86c0.74,1.8,1.91,3.59,2.84,5.03
		c1.01-0.72,2.08-0.47,2.57,0.78c1.6,0.06,3.19,0.04,4.77-0.2c-0.19,1.32-1.7,2.52-3.15,2.69c0.4,1.83,1.9,0.03,3.1,0.97
		C162.74,92.07,161.71,92.09,161.05,92.49z M200.51,75.65c-0.32,0.33-0.62,0.66-0.94,0.99c-0.61-0.31-1.17-0.01-1.8-0.6
		C198.66,75.61,199.54,74.99,200.51,75.65z M194.96,79.03c0.45,0.46,0.68,0.95,0.81,1.46c-0.44-0.42-0.96-0.8-1.52-1.18
		C194.49,79.2,194.72,79.11,194.96,79.03z M187.12,114.65c0.69,1.16,1.55,2.25,1.54,3.7c-0.12,0.18-0.26,0.34-0.4,0.49
		c-0.64-0.32-1.31-0.6-2.02-0.84C185.41,116.1,186.7,115.67,187.12,114.65z M202.7,96.95c-0.77,0.36-1.51,1.06-2.12,2.25
		c-0.11,0.97,0.63,1.8,1.67,2.38c-1.16-0.04-2.3,0.16-3.4,0.91c-1.01,1.47,0.74,2.77,0.29,4.2c-0.41,0.6-0.84,1.19-1.31,1.79
		c-0.27-0.2-0.55-0.38-0.86-0.53c-1.21,0.92-1.73,1.96-1.84,3.09c-2.31,0.36-4.88-3.05-7.09-1.1c-0.07-0.02-0.13-0.04-0.2-0.06
		c-0.02,0.18,0.02,0.37,0.1,0.56c-0.41-0.04-0.84-0.05-1.29,0c-0.42,0.99-0.44,1.82-0.26,2.56c-1.29,0.21-2.07-0.22-2.92-0.57
		c0.33-0.92,1.28-1.6,2.35-1.3c-0.57-1.93,1.63-4.46,3.81-5.19c0.94,0.64-0.7,1.73,1.09,2.22c-0.96-4.14,3.78-6.11,7.07-6.67
		c1.21-3.03-0.74-5.5-0.39-8.38c0.89-1.4,3.45,0.24,3.27-1.47c-1.16-0.34-2.05-1.07-2.56-2.07c0.47,0.45,1.17,0.68,1.58-0.04
		c-0.04-0.67-1.24-1.77-1.94-0.97c-0.11-0.56-0.13-1.17-0.02-1.84c0.82-1.33,1.93-1.24,2.8-2.33c0.47-0.18,0.96-0.37,1.49-0.51
		c0.36,0.64,0.38,1.34,0.29,2.06c-0.21-0.17-0.43-0.35-0.64-0.52c-1.13,0.76-2.32,1.52-1.08,2.64c0.48-0.03,1.16-0.58,1.55-1.15
		c-0.22,1.12-0.45,2.25,0.16,3.24c1.22-1.89,1.91-3.69,1.62-5.32c2.86,1.59,4.49,3.13,7.29,3.91c-1.35,2.01-3.14,3.09-4.76,4.54
		c0.42-0.71,0.69-1.41-0.35-2.03c-0.31,0.33-0.62,0.67-0.94,0.99c0.11,0.44,0.39,0.87,1.02,1.28c-0.44,0.41-0.86,0.85-1.25,1.36
		c-0.01-0.07-0.03-0.13-0.04-0.2C203.58,95.41,202.92,96.17,202.7,96.95z M220.85,279.54c1.32-0.54,2.69-1.02,4.75-0.71
		C225.67,282.22,219.14,285.8,220.85,279.54z M225.28,288.61c-2.88-1.69,0.02-6.08,2.83-5.93
		C229.16,285.08,227.92,288.76,225.28,288.61z M237.04,98.63c-1.58,0.04-3.07,1.54-4.7,0.91c-0.61-1.06,0.81-2.24-0.72-3.24
		c-0.38,1.01-1.74,1.96-2.94,1.12c-0.74-0.66,0.54-1.44-0.39-2.09c-1.72,0.53-3.44,1.09-5.17,1.41c-0.12-0.62-0.33-1.2-0.74-1.71
		c0.9-0.75,1.79-1.55,2.69-2.29c0.57-0.06,1.17-0.16,1.77-0.28c-0.1-0.44-0.04-0.76,0.05-1.06c2.3-1.44,4.85-1.95,8.13,0.37
		c-0.19,0.36-0.15,0.7,0.38,1.02c0.93,0.2,1.26-0.39,1.67-1.08C236.9,93.99,236.89,96.32,237.04,98.63z M237.29,101.82
		c-0.12-0.2-0.11-0.41-0.02-0.63c0.03,0.23,0.06,0.46,0.09,0.69C237.34,101.86,237.31,101.84,237.29,101.82z M237.17,90.71
		c-0.23-0.19-0.46-0.38-0.69-0.57c-0.21,0.27-0.5,0.53-0.77,0.8c0.42-1.45-1.13-2.11-0.9-3.49c1.26-0.58,2.31-1.26,3.23-2.03
		C237.64,87.1,237.35,88.88,237.17,90.71z M259.31,303.32c-2.14,0.25-1.5-3.19,0.66-2.3C260.03,302.1,259.75,302.8,259.31,303.32z"
		/>
</g>
<g id="splash2">
	<path class="st1" d="M201.46,261.26c-0.43,0.14-0.66,0.79-0.93,1.33c1.01,0.83,1.79-0.38,1.59-1.08
		C201.9,261.43,201.68,261.35,201.46,261.26z"/>
	<path class="st1" d="M254.97,166.55c-1.75-0.76-2.82,1.82-1.21,2.43C254.5,168.68,255.44,167.25,254.97,166.55z"/>
	<path class="st1" d="M259.06,156.31c0.14,0.38,0.9,0.67,1.32,0.5c0.47-0.5-0.04-0.64,0.29-1.09
		C259.9,155.38,259.37,155.57,259.06,156.31z"/>
	<path class="st1" d="M256.93,169.94c-1.28-0.75-2.35,0-2.35,1.04c0.77,0.37,1.44,0.51,2.08,0.55
		C257.15,170.85,256.89,170.45,256.93,169.94z"/>
	<path class="st1" d="M262.83,171.22c-0.29-0.11-0.59-0.22-0.88-0.33c-0.39,0.66-1.11,1.09-0.59,1.7
		C262.24,173.08,262.42,171.87,262.83,171.22z"/>
	<path class="st1" d="M277.83,147.55c0.37-0.79-0.14-1.27-0.39-1.83c-1.18-0.26-2.48,0.39-2.43,1.72
		C275.78,148.28,277.07,148.07,277.83,147.55z"/>
	<path class="st1" d="M224.23,249.21c-0.46-0.21-0.46,0.68-0.73,0.93C224.47,250.54,224.43,249.64,224.23,249.21z"/>
	<path class="st1" d="M264.97,179.97c-0.16-0.37-0.68-0.57-1.1-0.42c-0.1,0.2-0.2,0.41-0.3,0.61
		C264.18,180.43,264.75,180.64,264.97,179.97z"/>
	<path class="st1" d="M276.95,159.73c0.49-1.01,0.23-1.73-0.4-2.32C275.77,157.94,276.42,159.15,276.95,159.73z"/>
	<path class="st1" d="M267.96,184.95c0.33-0.56,0.58-1.1-0.15-1.26c-0.43,0.15-0.78,0.84-0.61,1.21
		C267.43,184.86,267.66,184.83,267.96,184.95z"/>
	<path class="st1" d="M221.82,279.57c1.55,1.11,3.02-0.83,2.53-1.93C223.06,277.22,221.85,278.32,221.82,279.57z"/>
	<path class="st1" d="M270.46,188.3c-0.81-0.45-1.2,0.08-1.61,0.59c0.48,0.26,0.86,0.29,1.2,0.21
		C270.19,188.85,270.32,188.57,270.46,188.3z"/>
	<path class="st1" d="M271.72,190.47c0.44-0.66,0.51-1.18-0.37-1.35c-0.58,0.51-0.56,0.72-0.39,1.3
		C271.2,190.38,271.43,190.35,271.72,190.47z"/>
	<path class="st1" d="M275.58,189.04c-0.22-0.08-0.44-0.17-0.66-0.25c-0.46,0.17-0.99,1.2-0.81,1.62
		C275.21,190.77,275.38,189.89,275.58,189.04z"/>
	<path class="st1" d="M273.38,191.34c-0.57,0.69,0.63,1.09,1.12,0.9C275.07,191.55,273.87,191.16,273.38,191.34z"/>
	<path class="st1" d="M293.02,160.53c0.5-0.17,0.9-1.03,0.07-1.18C292.58,159.52,292.18,160.39,293.02,160.53z"/>
	<path class="st1" d="M230.01,287.73c-1.24-0.19-1.95,1.54-0.79,2.11C230.17,289.87,231.17,288.2,230.01,287.73z"/>
	<path class="st1" d="M294.89,164.61c0.61-0.23,0.05-0.42,0.51-1.01c-1.5-0.16-0.42-1.27-1.57-1.56
		C292.97,162.75,293.71,164.12,294.89,164.61z"/>
	<path class="st1" d="M294.62,166.19c-0.31,0.39-0.12,0.59-0.19,0.89c0.15,0.05,0.29,0.11,0.44,0.17c0.79,0.1,1.25-0.56,1.81-1
		C295.86,165.9,295.37,166.36,294.62,166.19z"/>
	<path class="st1" d="M306.28,149.2c0.66-0.73-0.17-1.26-0.79-1.02C305.06,148.77,305.63,149,306.28,149.2z"/>
	<path class="st1" d="M271.79,223.7c-1.4,0.8-2.73,1.76-4.61,1.38c-0.49,1.06,1.68,1.13,0.3,2.52c1.26,0.12,1.35,1.65,2.57,2.18
		C274.44,231.65,277.17,224.8,271.79,223.7z"/>
	<path class="st1" d="M307.92,149.58c-0.56,0.27-1.45,1.2-1.23,1.94c0.29,0.11,0.59,0.22,0.88,0.33
		C308.27,151.43,309.04,149.85,307.92,149.58z"/>
	<path class="st1" d="M298.96,172.65c1.4,0.96,4.07,0.25,4.46-2.64c-1.26,0.19-1.22-0.77-1.65-0.87
		C299.44,168.59,296.97,171.28,298.96,172.65z"/>
	<path class="st1" d="M294.11,182.84c0.37,0.14,0.73,0.28,1.1,0.42c0.49-0.62,0-0.88-0.47-1.14
		C294.48,182.23,294.27,182.48,294.11,182.84z"/>
	<path class="st1" d="M296.5,182.78C297.92,184.98,299.19,181.19,296.5,182.78L296.5,182.78z"/>
	<path class="st1" d="M277.59,222.05c-0.27,0.9,1.32,0.61,0.86-0.15C278.13,221.86,277.93,222.12,277.59,222.05z"/>
	<path class="st1" d="M287.76,215.32c3.04,0.24,7.98,0.64,8.25-2.89c0.39-0.54,1.18-0.12,1.6-0.59c-0.45-1.91-0.3-4.06-0.96-5.9
		c-1.55-0.36-2.14-1.07-2.77-1.77c-1.92,0.1-3.54,0.26-5.21-0.05c-0.36,1.08-1.66,2.11-2.95,2.25c-1.35,3.19-0.43,5.53,0.81,7.76
		C287.5,214.03,287.96,214.55,287.76,215.32z"/>
	<path class="st1" d="M306.48,170.69c-0.53-0.23-1.04-0.43-1.42-0.3c-0.1,0.2-0.21,0.4-0.3,0.61
		C305.52,171.35,306.25,171.62,306.48,170.69z"/>
	<path class="st1" d="M294.04,196.53c-0.49,0.18-1.08,1.24-0.17,1.38C294.37,197.73,294.96,196.67,294.04,196.53z"/>
	<path class="st1" d="M282.49,219.57c-0.26,0.12-0.47,0.37-0.62,0.73c0.29,0.11,0.59,0.22,0.88,0.33
		C283.07,220.13,283.09,219.73,282.49,219.57z"/>
	<path class="st1" d="M291.95,201.75c1.7,0.23,3.28,0.18,4.41-0.97C294.85,200.72,292.3,200.5,291.95,201.75z"/>
	<path class="st1" d="M306.26,176.86c-0.43,0.98,1.72,1.5,2.07,0.55C308.01,176.74,306.83,176.74,306.26,176.86z"/>
	<path class="st1" d="M302.15,192.87c0.2-0.4,0.73-0.03,0.84-0.64c-0.17-0.27-0.45-0.49-1-0.62
		C301.44,192.09,301.43,192.49,302.15,192.87z"/>
	<path class="st1" d="M268.39,266.44c-0.56,1.03,0.58,1.44,1.05,2.08C269.08,267.83,269.8,266.75,268.39,266.44z"/>
	<path class="st1" d="M294.89,217.78c0.04,1.32,2.64,1.49,3.85,1.7C299.07,218.2,295.75,217.69,294.89,217.78z"/>
	<path class="st1" d="M292.86,240.59c-0.69,0.99,0.92,2.3,2.45,1.89C296.68,240.47,293.7,239.37,292.86,240.59z"/>
	<path class="st1" d="M300.17,229.65c0.21,1.11,2.22,2.52,3.53,1.82C304.16,230.33,301.04,229.77,300.17,229.65z"/>
	<path class="st1" d="M296.91,245.02c-0.44,1.13,1.6,2.09,2.89,2.06C300.25,245.93,297.98,245.06,296.91,245.02z"/>
	<path class="st1" d="M319.13,213.74c-0.22,0.3,0.03,0.43-0.08,0.69c0.53,0.37,0.64-0.24,1.08-0.07
		C320.36,213.84,319.55,213.57,319.13,213.74z"/>
	<path class="st1" d="M320.55,214.04c1.65,0.4,3.09,0.31,4.09-0.86C323.57,212.5,321.5,212.99,320.55,214.04z"/>
	<path class="st1" d="M317.63,226.65C319.99,224.69,314.74,225.31,317.63,226.65L317.63,226.65z"/>
	<path class="st1" d="M300.8,282.1c0.03,0.21,0.07,0.41-0.09,0.69c0.71,0.37,1.28,0.41,1.51-0.39
		C301.67,281.89,301.44,281.92,300.8,282.1z"/>
	<path class="st1" d="M279.34,213.33c-0.55-0.67-0.06-1.74,0.02-2.64c0.45-0.71,1.22-0.64,1.93-0.71c0.38-0.74-0.46-1.04-0.49-1.63
		c0.37-0.6,0.8-1.06,1.25-1.45c2.38,0.23,3.74-1.98,5.64-2.91c-0.09-1.98,1.89-4.34-0.2-5.85c1.1-0.91,2.11-2.05,3.85-1.43
		c0.36-1.21,1.12-1.48,2.01-1.4c0.03-1.34,1-1.32,1.77-1.98c-0.26-1.39,0.35-2.09,1.52-3.03c-0.47-0.54-1.55-0.86-1.89-1.44
		c0.23-0.76,1.37-0.27,1.05-1.05c-0.34-1.32-2.58-0.92-3.11-2.14c0.21-0.98,0.87-0.86,1.25-1.45c-1.11-1.12-0.98-2.44-0.13-3.9
		c0.47-0.64,1.69,0.5,2.28,0.14c0.55-0.75-0.54-0.89-1.23-1.19c-1.02-1.99,1.09-3.78,2.64-5.26c-0.62-0.43-1.49-0.77-0.71-1.71
		c-2.26-0.81-3.19-2.11-2.1-4.16c-1.68,0.34-1.17-0.79-2.75-1.29c-1.06-1.03,1.87-3.54-0.25-4.19c-1.16,0.35-0.68,1.9-2,1.89
		c-0.7-1.08-1.24-1.93-2.57-2.17c-1.57-0.29-3.8,1.98-4.91-1.14c-1,0.41-1.8,1.32-3.11,0.99c-1.11-0.25,0.25-1.41-1.03-1.59
		c-0.83,0.33-0.4,1.11-0.91,1.82c-1,1-2.27-0.27-2.94-0.39c-0.53,0.74-0.2,1.17-0.05,1.66c-0.63,0.42-1.16,1.07-2.15,0.63
		c-0.5-0.64,0.59-1.87-0.4-2.32c-2.52,1.23-0.48,3.42-0.27,4.71c-0.83,0.57-0.62-0.97-1.32-0.5c-0.32,1.42-0.04,4.36-2.21,4.94
		c0.85,1.33-0.11,3.24-0.81,4.74c0.9,0.52,1.22-0.33,1.82-0.51c0.47,0.43,0.69,0.95,0.49,1.63c-0.64,0.97-1.98,0.29-2.55,1.44
		c1.12,0.32,1.75-0.55,2.81-0.38c0.86,0.51,0.79,1.36,0.72,2.2c-0.48,0.63-1.39,0.23-1.69,1.28c1.22,0.57,1.5-1.13,2.69-0.67
		c0.79,0.31,0.66,0.96,0.17,1.75c2.58,0.32,3.89,2.06,4.78,3.5c0.84,0.38,1.1-0.61,1.95-0.23c-0.37,1.21-1.29,1.06-1.78,1.97
		c0.4,1.36-0.2,2.61,0.98,3.26c1.48,0.82,2.63-0.72,4.33-0.28c0.11,1.28-0.58,2.85,0.13,3.9c-0.27,0.19-0.54,0.35-0.83,0.49
		c-0.78-1.16-2.64-1.28-3.68-0.1c-0.03,0.59-0.05,1.18-0.08,1.77c-0.46,0.3-0.89,0.67-1.26,1.16c-2.44-1.42-3.29,0.99-5.52,0.07
		c-0.75,1.7-4.12,2.42-3.95,4.75c-0.22,0.82-1.06,0.12-1.38,0.68c0.59,1.91,0.54,4.71-2.65,4.77c-0.47,0.01-0.98-0.51-1.54-0.58
		c-1.32-0.18-2.47,0.04-3.53,0.55c0.22-0.65,0.56-1.27,0.98-1.76c-1.63-0.37-1.52,0.89-2.62,1.01c-1.46-0.77-1.67-1.62-1.68-2.66
		c1.76-1.5,3.63-2.59,6.15-1.97c0.26,0.06,0.49,0.2,0.72,0.35c-0.64,0.14-1.1,0.43-1.36,0.93c-0.04,1.01,0.61,1.4,1.41,1.67
		c1.2,0.13,1.72-1.08,1.52-2.02c0.14-0.02,0.28-0.06,0.44-0.13c0.75-1.92-2.77-2.27-2.74-3.92c0.53-1.25,1.18-2.21,1.84-3.15
		c0.83-0.67,2.19-0.08,2.89-1.07c0.37-1.56-0.58-2.64-1.54-3.71c0.41-1.53,1.13-2.65,2.03-4.04c-0.85-1.11-2.6-1.89-1.22-3.83
		c-2.19-1.77-2.34-4.29-2.62-6.77c-0.69-0.33-0.86,0.61-1.5,0.39c-0.89-0.42-0.63-1.45-0.07-1.95c-1.09-0.56-1.48,0.58-2.36,0.54
		c-1.01-0.83-0.04-2.4-0.98-3.26c-1.02-0.51-1.09,1.24-1.91,1.2c-1.54-0.53-2.42-1.3-2.79-2.26c-2.15-0.03-3.51-0.81-5.9-1.27
		c-0.78-1.63,0.16-3.9-2.23-4.93c-0.38,1.47,0.34,1.96-0.97,3.48c0.76,0.65,1.57,1.28,1.49,2.25c-0.21,0.24-0.55,0.17-0.74,0.44
		c-0.16-0.08-0.33-0.15-0.5-0.23c0.24-0.24,0.59-0.47,1.06-0.67c-1.08-0.7-2.98-0.66-3-2.31c1.58-4.65,5.1-8.21,4.24-13.91
		c1.31-0.02,2.62-0.05,3.94-0.07c2.72-2.92,6.83-4.58,7.2-9.62c7.01-2.41,3.52-9.22,2.51-14.26c-1.32-0.48-2.25,1.39-2.63,0.45
		c1.99-6.01-0.21-12.74-1.8-17.35c-0.2,0.76-0.19,1.71-1.34,1.61c-0.65-2.29,2.25-5.84,1.06-8.71c-2.65,0.7-2.41,4-4.48,5.22
		c-2.53-0.54-2.42,1.31-3.97,1.66c-1.13-0.78-1.29-2.45-2.11-3.52c-2,0.32-4.42-0.36-5.24,0.1c-0.44,1.82,1.06,1.88,0.8,3.54
		c-2.44,0.23-3.45,1.97-5.71,1.29c-0.06-0.59,0.18-1.46-0.4-1.57c-0.33,1.48-2.9,2.52-3.98,2.05c0.16-3.3,3.02-3.1,1.9-6.75
		c-1.93-0.4-2.19,0.71-3.51,0.86c0.35-1.99-0.19-3.19-0.78-4.33c0.99-1.06,1.89-0.67,3.51-0.46c0.28-3.11,2.12-4.8,2.79-7.55
		c-0.64-1.1-2.03-1.51-1.66-3.52c0.14-0.82,1.18-0.81,1.77-1.21c-0.56-1.71-0.29-2.63,0.52-3.96c-3.01-0.12-3.71-2.32-4.26-4.66
		c-3.28,0.13-2.74,3.71-5.34,4.45c-0.49-0.46-0.46-1.39-0.39-2.36c-1.54,0.45-2.43,1.92-4.39,0.87c-0.12,2.04-2.26,2.26-3.14,3.62
		c-0.26,1.92,0.51,4.76-1,5.55c-3.24-2.93-6.64,0.85-10.89-1.37c-1.03,0.14-0.3,1.88-1.79,1.61c-0.51-1.8-1.53-3.17-0.76-5.12
		c-2.01,1.64-6,1-8.3-0.24c-0.27-1.72,0.79-2.24,0.52-3.96c-3.78,1.76-7.98,0.95-9.56-2.19c2.8-1.02,0.99-3.71,1.89-6.36
		c-1.74,0.45-3.34,1.02-5.27,1.29c-0.42,1.93,1.21,2.01,0.79,3.93c-0.6,0-0.97,0.2-1.32,0.42c-2.87,0.27-1.24-3.52-2.96-4.29
		c-1.43,2.47-0.92,6.7-6.25,5.65c-1.94-1.47,0.81-4.58-0.3-6.32c-2.14,0.84-3.27,0.29-5.26,0.89c2.37,2.51,2.42,7.1,4.14,10.19
		c-1.1,1.69-2.9,2.75-5.32,3.26c-2.03,3.68-4.33,7.12-8.07,9.24c-1.16-0.62-2.04-1.51-2.56-2.72c0.95-0.35,1.57-1,1.37-2.4
		c-2.88-0.31-3.6,1.32-5.72,1.69c-1.69-1.37-4.61-3.49-7.82-2.22c-0.38,1.38,0.62,1.51,0.37,2.76c-1.25,0.98-2.48,0.67-3.48-0.33
		c2.2-1.19,2.56-6.04-0.74-6.3c-1.56,1.94,1.15,5.05-0.15,6.72c-1.35-0.32-1.77-1.5-2.12-2.73c-5.66,1.3-1.49-2.55-2.04-6.28
		c1.35-0.07,1.22,1.22,3.04,0.73c1-1.5,0-3.98-1.21-4.72c1.14,0.09,1.89-0.18,1.78-1.22c-0.03-1.01-0.04-2.03-1.27-1.95
		c-1.34,1.58-6.1,3.63-4.06,5.61c-1.64-0.01-1.24-0.42-2.62,0.05c-0.03,2.12-1.1,3.3-3.57,3.23c-1.34-3.93,3.17-7.75,2.01-11.49
		c-0.44,0.01-0.87,0.02-1.31,0.03c-1.38,0.63-0.79,3.04-0.98,4.76c-1.9,1.6-4.08,0.55-6.15,1.7c-0.2,1.6,2.51,0.56,2.13,2.33
		c-0.7,1-3.56,2.14-1.84,3.99c0.47-0.38,0.17-1.46,1.34-1.21c2.55,3.62,5.52,6.87,7.17,11.31c-0.58,0.69-0.94,1.57-2.22,1.62
		c-0.91-0.21-1.23-0.95-2.6-0.74c-1.45,3.34-2.45,7.07-3.85,10.44c-1.07-0.67-2.47-0.98-3.8-0.81c0.02-0.66,0.03-1.32,0.05-1.98
		c-1.7-0.06-2.29,0.89-3.53,1.25c-0.52,3.18,1.24,4.31,3.4,5.08c0.49,0.25,1.03,0.43,1.59,0.51c1.58,0.49,3.14,1,4.01,2.13
		c-1,0.79-3.29,0.41-4.37,0.09c-1.25,1.96-2.41,4-2.35,7.15c1.3,3.33,4.64,3.96,7.82,4.88c-0.06,0.13-0.13,0.26-0.2,0.38
		c2.7,1.36,0.3,3.54,0.95,5.32c0.64-0.16,1.28-0.26,1.92-0.42c0.8,0.59-0.36,1.05-0.07,1.6c-0.44,0.67-0.63,1.39-0.24,2.25
		c0.13,0.02,0.25,0.04,0.37,0.04c-2.88,1.58-4.24,4.77-3.01,7.34c-1.15,0.36-2.26,0.4-3.33,0.14c-0.57,0.52,0.35,1.15-0.02,1.69
		c-1.08,0.85-2.1,1.25-3.07,1.28c-1.11-1.48-2.32-2.3-3.72-1.58c-1.04,1.24,0.92,2.69,0.1,3.95c-2.09,1.2-3.79-0.55-5.89,0.71
		c0.03,0.05,0.06,0.1,0.09,0.14c-1.05-0.08-2.09,0.03-3.26,0.52c0.37,1.11,0.44,1.99,0.59,2.84c-1.46-0.33-2.88-0.51-4.03,1.09
		c-2.15,0.4-3.17-2.06-4.95-1.67c0.12-0.68,1.3-1.28,1.3-1.97c-0.64-0.87-1.32-1.47-2.13-1.09c-0.92,0.44,0.29,1.02-0.2,1.49
		c-0.96,1-1.72,0.51-2.51,0.2c-0.43-1.06,0.41-3.08-1.65-3.13c-1.8,1.44-0.12,3.12-0.42,4.67c-2.46,0.35-4.92,0.68-7.49,1.9
		c-0.41-0.3-0.81-0.64-1.22-0.99c0.07-0.7-0.25-1.46-0.68-1.76c-0.34,0.11-0.62,0.26-0.91,0.41c-0.37-0.29-0.75-0.55-1.13-0.76
		c0.06,0.46,0.26,0.9,0.5,1.35c-0.06,0.89,0.25,1.46,1.02,1.62c0.85,1.39,1.28,2.75-1.24,4.19c-0.87,0.31-1.54-0.87-2.31-1.29
		c-0.48,0.66-0.03,1.38,0.34,2.1c-3.68,3.27-7.48-0.66-10.51,2.81c-0.73,0.29-1.37-0.05-1.95-0.9c-1.15,1.42,0.87,3.07-1.41,4.41
		c-0.88,0.41-1.52-1.03-2.41-0.55c-1.1,0.47-0.83,1.05-0.71,1.61c-0.07,0.03-0.15,0.05-0.22,0.08c-0.01,0.22-0.02,0.44-0.03,0.66
		c-0.72,0.32-1.3-0.41-1.92-0.87c-1.33,1.6-3.78,2.58-5.55,2.79c-0.53,1.37-1.58,2.5-3.16,2.03c-0.4,0.72,0.2,1.52,0.93,2.32
		c-1.24,0.52-2.39,1.86-2.72,3.37c0.54,0.6,1.08,1.2,1.62,1.8c-0.78,1.14-1.28,2.29-0.68,3.52c-1.15,0.97-1.82,0.23-2.07,1.54
		c-1.06,0.7-1.77-1.15-2.72-1.32c-1.16,0.98-1.64,2.01-2.27,3.03c0.48,0.68,1.39,0.56,1.26,1.4c-1.74,1.68-1.97,0.17-2.64-0.37
		c-1.96,0.56-2.32,1.99-2.08,3.23c0.42,0.93,1.15-0.33,1.59,0.48c-0.1,0.86-2.39,0.79-2.21,2.66c0.58,0.79,1.25,0.92,1.9,1.26
		c0.89,1-0.43,1.85-0.99,2.74c0.64,0.92,1.04,1.83,1.29,2.72c0.8,1.75-3.83,3.11-2.11,4.92c0.97-0.03,2.16-1.68,3.07-1.28
		c0.52,1.42,0.42,2.78,2.32,4.3c2.57-1.02,4.27,1.7,3.65,3.64c2.92-1.64,4.56,0.81,4.62,2.58c1.23-0.54,0.45-1.22,1.07-1.8
		c2-0.34,2.38,0.7,3.49,1.75c0.75-0.57,0.84-1.19,1.89-1.74c0.78-0.16,1.48,0.27,2.18,0.72c0.2,0.81-2.65,1.1-0.99,2.75
		c0.46-0.34,0.92-0.68,1.38-1.03c0.81-0.14,1.34,0.1,1.8,0.53c-0.09,0.01-0.2,0.02-0.31,0.05c-0.43,1.66,1.08,1.63,0.98,3
		c-2.59,1.62-2.44,5.81-4.05,8.36c0.79,1.33,2.6,2.06,1.29,4.34c2.98,1.9,3.17,6.23,8.6,5.98c1.31,0.14,1.4,1.35,2.13,2
		c1.69,0.08,1.92-1.21,3.03-1.68c1.13,0.08,1.08,1.2,1.77,1.67c2.98-2.07,7.18-2.98,8.41-6.7c1.64-0.31,2.54-1.32,4.48-1.35
		c0.41,3.5,3.65,4.52,5.62,6.66c3-0.99,4.2,0.6,5.83,1.65c2.68-1.24,6.64-2.58,10.05-2.03c0.08-2.59,1.94-3.51,3.88-4.35
		c-0.86-2.27,0.78-3.19,2.25-4.24c0.25,0.27,0.56,0.48,0.85,0.51c0.23-0.5,0.05-0.73-0.26-0.96c0.46-0.38,0.87-0.8,1.1-1.32
		c-0.74-0.32-1.43-0.68-2.18-1c-0.22-1.26,1.45-0.73,1.55-1.67c-0.06-1.24-1.92-0.9-1.75-2.33c0.21-0.27,0.41-0.55,0.42-1
		c1.49,0.83,3.11,1.18,4.69,1.16c-0.34,1.1,0.29,2.37,1.28,3.08c-0.19,0.38-0.4,0.76-0.23,1.47c1.11,0.8,3.61,0.27,3.95-0.87
		c-0.34-0.1-0.59-0.29-0.81-0.51c0.25-0.18,0.49-0.41,0.72-0.71c0.82-0.48,1.45,0.51,2.18,0.72c0.23-0.17,0.46-0.34,0.69-0.51
		c-0.8-1.28-1.87-2.64-3.11-3.95c1.57-0.92,2.8-2.28,3.36-3.93c1.4,0.49,2.46,1.28,3.22,2.32c1-0.1,0.72-1.4,1.55-1.67
		c1.77-0.04,3.08,0.31,4.02,0.99c-0.3,2.3,0.08,4.01,2.03,4.33c2.09-0.46,1.58-3.37,3.49-4.01c3.03,0.35,3.03,3.35,6.12,3.65
		c0.42-1.91,0.96-3.73,2.76-4.34c0.06,0.02,0.11,0.05,0.16,0.08c-0.95,2.56-2.62,5.18-3.23,7.89c2,0.25,1.48,2.78,1.87,4.49
		c-1.17,1.1-2.17,2.12-2.44,3.58c-1.02,5.58,5.89,6.39,8.94,3.66c-0.24,0.28-0.5,0.53-0.79,0.76c0.27,4.5-4.53,8.42-3.3,11.12
		c1.42-0.97,2.53-4.01,4.44-3.24c-0.91,3.43-0.71,7.28,2.01,7.86c7.4,1.56,9.13-13.69,11.33-18.38c-2.51,0.24-3.11-1.26-4.11-2.39
		c0.31-0.54,0.65-1.06,1.13-1.44c2.61,1.47,5.2,2.96,8.7,3.65c0.36,1.93,0.24,4.29,0.85,6.01c1.93-2.71,0.02-8.1,6.22-7.36
		c1.09,0.34,0.64,2.01,0.98,3.01c1.04-0.3,1.28-1.35,1.58-2.34c6.4-0.53,6.36,6.2,12.34,4.97c0.49,0.13,0.81,0.42,0.96,0.85
		c-0.41-0.27-1.1-0.47-1.44-0.34c-0.67,0.96-0.21,1.51,0.93,1.8c0.26-0.1,0.45-0.37,0.62-0.69c0,0.22-0.02,0.46-0.07,0.72
		c0.93-0.22,1.43-0.84,1.9-1.49c1.79-0.23,1.83,1.12,3.35,1.13c0.11-0.69,0.37-1.55,0.79-2.2c0.2,0.64,0.21,1.43,1.01,1.54
		c1.98,0.47,1.76-1.13,2.65-1.67c1.38-0.03,1.2,1.31,1.38,2.33c2.69-0.62,5.86,0.22,7.7,1.31c1.74-0.98,3.74-1.32,4.79,0.32
		c1.02-0.43,1.19-1.66,1.23-3c1.62,0.4,3.91-0.09,5.59-1.35c0.04-1,0.09-2,0.12-3c1.22-0.39,2.32-0.89,3.06-1.72
		c0.98,0.11,1.6-0.67,2.53-0.68c0.92,0.37,1.36,0.92,2.53,1.2c0.01-0.01,0.03-0.02,0.04-0.03c0.01,0.59,0.02,1.19,0.31,1.54
		c1.97-0.12,3.35-0.79,4.86-1.35c0.05-0.33-0.01-0.61-0.08-0.86c0.27,0.09,0.54,0.2,0.82,0.31c0.46-0.52,0.91-1.06,1.49-1.32
		c0.24,0.51-0.08,1.29-0.01,1.86c0.75,0.29,1.42,0.36,2.02,0.28c0.43,0.78,1.04,1.49,2.13,2.03c-0.41,0.8-1.27,0.51-2.04,0.43
		c-0.53,0.71-1.08,1.37-1.72,1.82c-1.42-1.37-3.26-2.36-5.7-2.8c-1.3,0.98-3.01,1.58-3.57,3.22c0.37,0.83,1.85,0.65,1.7,1.94
		c-3.33,3.24-0.55,6.58,0.66,9.86c-1.08-0.03-2.11-0.01-2.63,0.45c-0.36,2.46,1.33,3.07,2.64,4.02c-0.45,0.7-1.41,1.09-2.18,1.45
		c0.77,1.21-1.42,2.49-0.2,3.53c-0.34,0.37-0.83,0.37-1.05,1.04c0.32,0.71,0.85,1.33,1.37,1.96c-0.82,0.7-2.04,0.43-2.65,1.64
		c1.11,0.45,1.57-0.67,2.7-0.18c0.98,0.73,1.09,1.79,1.82,2.61c1.29-0.46,2.03,0.63,2.44,1.41c0.81,0.31,1.17-0.46,1.82-0.51
		c1.01,0.18,0.84,0.79,1.56,1.07c1.62-1.24,3.96-0.76,5.52-2.17c0.31,0.85,0.4,1.89,0.21,3.19c0.86,0.82,3.21,1.75,4.79,0.7
		c-0.14-2.43-3.3-3.41-1.61-6.29c-0.08-0.16-0.21-0.28-0.35-0.38c-0.04-0.49-0.31-0.89-0.11-1.47c0.27-0.84,1.16-0.17,1.61-0.6
		c-0.03-0.33-0.09-0.65-0.19-0.95c0.15-0.06,0.3-0.12,0.44-0.19c0.75-2.66-0.08-3.51-1.58-3.66c-0.48-1.19-1.55-2.16-1.56-3.52
		c0.57-0.55,1.53-0.18,2.5,0.23c1.21-1.54,3.12-1.41,4.58-2.35c-0.45-1.67,1.48-2.16,2.5-2.9c-0.03-1.68-0.08-4.58,1.64-5.87
		c-1.49,0.06-2.38-1.39-1.82-2.62c-1.5-0.64-2.43-1.49-2.6-2.63c1.89-3.05-0.28-5.45-2.61-5.99c-0.06-0.61-0.23-1.19-0.45-1.74
		c0.86,0.37,2.19,0.22,2.73-0.46c0.5-3.19-3.09-3.64-3.34-0.89c-0.11-0.22-0.22-0.45-0.33-0.67c1.09-0.62,1.67-1.48,1.32-2.63
		c0.07-0.12,0.14-0.23,0.21-0.34c0.17-0.04,0.33-0.09,0.49-0.15c0.02-0.13,0.05-0.25,0.08-0.37c0.53-0.33,1.17-0.38,1.85-0.35
		c-0.38,0.37-0.66,0.84-0.85,1.38c2-0.46,2.23,0.62,3.28,0.99c-0.33-0.7-0.54-1.52-0.87-2.22c0.26,0.02,0.51,0.04,0.76,0.04
		c0.17-0.34,0.34-0.68,0.51-1.01c-0.45-0.88-2.01-1.34-1.92-2.41c0.26-0.5,0.6-0.81,0.98-1.02c1.8-0.21,3.85-0.19,3.88-2.07
		c-0.4-0.3-1.12-0.32-1.84-0.34c-0.73-0.39-1.09-0.91-0.7-1.71c1.67-1.18,4.2-0.29,5.2-3.08c0.86-0.61,2.24,0.06,3.24-0.21
		c1.08,0.59,0.48,2.3,2.03,2.21c0.86-0.59,0.74-1.36,0.47-1.98c0.48-0.18,0.82-0.7,1.39-0.68c0.77,0.59,1.24,2,2.77,1.77
		c0.7-1.57-1.18-2.19-1.42-3.42c1.4-1.56,3.68-2.27,4.41-4.1c1.79,0.15,3.97,1.24,5.8,1.48
		C283.58,214.62,281.14,214.09,279.34,213.33z M282.43,186.83c0.71,0.34,0.54,1.01,0.49,1.63c-0.56-0.18-0.52-0.57-0.9-0.82
		C282.17,187.37,282.3,187.1,282.43,186.83z M152.18,159.89c-0.12-0.22-0.22-0.44-0.31-0.65c0.14,0.03,0.29,0.05,0.43,0.08
		C152.28,159.53,152.23,159.71,152.18,159.89z M147.99,137.28c0.1-1.47,2.27-2.5,3.53-1.65c0.05,0.98-0.71,1.24-0.91,1.99
		C149.52,137.7,148.5,137.73,147.99,137.28z M135.59,144.63c1.02-0.16,1.52-0.79,2.06-1.39c0.76,0.12,1.47,0.53,2.16,1.14
		c0.93-0.67,0.08-1.47,0.18-2.2c0.3-0.01,0.59-0.01,0.89-0.02c0.84,0.92,0.69,2.73,1.67,3.52c0.38,0.1,0.7,0.15,1,0.18
		c-0.08,0.09-0.16,0.19-0.25,0.28c0.51,0.82,1.14,0.77,1.72,1.06c0.39-0.61,0.82-1.21,1.26-1.82c0.2-0.06,0.42-0.12,0.65-0.18
		c-0.01-0.26-0.01-0.51,0-0.75c0.56-0.8,1.06-1.61,1.42-2.43c2.97,0.27,4.13,2.17,5.55,3.83c-0.55,1.8-2.56,2.26-3.58,3.63
		c-0.18,1.58-0.09,2.92,0.79,3.54c-0.69,0.59-1.72,0.86-2.65,1.23c-0.28,1.99,0.2,3.29,1.23,4.09c-0.52-0.12-1.03-0.31-1.51-0.77
		c-0.81-0.81,0.11-1.5-0.52-2.29c-0.98-1.01-2.27,0.41-3.28-0.23c-1.65-2.68,1.97-4.99,0.81-7.64c-1.08,1.61-2.26,3.22-2.93,4.86
		c-1.3,0.44-2.53,0.37-3.74,0.11c-1.03-0.83-0.98-1.57-1.75-2.38c-1.4,0.1-2.82,0.44-4.25,0.82c-0.52-1.54-0.09-3.01,0.59-4.46
		c-0.8-0.99-2.32-2.04-1.47-2.92c1.02-0.57,1.75,1.01,2.7,0.95C134.74,144.51,135.14,144.6,135.59,144.63z M115.34,218.09
		c0.36-1.09,0.65-2.18,0.21-3.33c0.13-0.13,0.25-0.2,0.37-0.23c0.61,0.27,1.22,0.54,1.85,0.79
		C117.23,216.48,116.37,217.36,115.34,218.09z M142.14,106.2c1.36-1.21,3.92-0.95,4.8,0.3c-1.31,0.97-1.62,2.84-3.57,3.23
		C142.7,108.78,141.78,108.07,142.14,106.2z M138.64,106.27c1.72,1.03,1.72,4.26-1.83,3.59
		C136.42,107.75,137.48,106.96,138.64,106.27z M118.61,122.45c1.41-0.11,1.83,0.66,3.49,0.33c1.84-0.89,0.76-4.41,4.02-4.03
		c-0.23,2.46-0.2,4.7,0.5,6.33c-1.01,1.74-2.51,3.67-4.51,4.71c0.39,0.43,0.62,0.84,0.74,1.25
		C118.23,130.53,114.76,126.44,118.61,122.45z M127.3,141.12c0.04,0.04,0.08,0.08,0.12,0.13c0.03,0.25,0.05,0.51,0.31,0.77
		c-0.46,0.07-0.89,0.18-1.31,0.32C126.72,141.94,126.9,141.43,127.3,141.12z M84.04,227.77c-0.3-0.07-0.36-0.34-0.73-0.33
		c-0.78-2.15,1.58-2.32,1.85-3.25c0.29-0.16,0.58-0.31,0.87-0.47c0.63,0.08,1.22,0.46,1.81,0.89
		C87.24,226.2,85.83,227.57,84.04,227.77z M156.72,242.84c0.16-0.48,0.23-1.01,0.19-1.59c-0.16-2.38-2.91-2.98-4.38-4.75
		c2.58-1.55,4.46-3.74,6.32-5.95c0.89,1.46,0.43,3.61,2.02,4.34c-0.73,0.59-2.37,0.32-2.99,1.01c-0.18,1.34-0.1,2.44,0.99,2.67
		c0.47,0.09,0.68-0.06,0.8-0.28c-0.01,0.21-0.01,0.43,0.02,0.67C158.26,239.85,157.54,241.39,156.72,242.84z"/>
	<path class="st1" d="M99.8,247.62c-0.5-0.4-0.99-0.83-1.64-0.12c0.3,0.34,0.6,0.67,0.9,1.01C99.62,248.23,99.55,247.91,99.8,247.62
		z"/>
	<path class="st1" d="M46.56,252.82c0.3-0.23,0.61-0.46,0.92-0.68c-0.3-0.34-0.6-0.67-0.9-1c-0.83,0.39-0.56,0.19-1.15,0.86
		C45.78,252.51,46.16,252.73,46.56,252.82z"/>
	<path class="st1" d="M40.8,237.01c1.21,1.86,3.63,0.95,3.61-0.68c-0.36-0.4-0.72-0.8-1.08-1.21
		C42.41,234.87,40.72,236.14,40.8,237.01z"/>
	<path class="st1" d="M37.97,233.43c1.33-0.04,5.36-2.05,4.42-3.63C40.69,230.3,38.98,232.27,37.97,233.43z"/>
	<path class="st1" d="M48.52,222.54c-1.04,0.6-0.2,1.96,0.75,2.12c0.86-0.57,1.26-1.16,1.07-1.8
		C49.8,222.26,49.17,222.33,48.52,222.54z"/>
	<path class="st1" d="M24.68,239.99c-0.09,0.49,0.53,1.18,1.08,1.21c0.61-0.52,0.67-1.08,0.01-1.69
		C25.39,239.84,25.08,239.62,24.68,239.99z"/>
	<path class="st1" d="M41.53,216.03c-0.34-0.97-2.41,0.19-1.15,0.85C40.76,216.6,41.15,216.32,41.53,216.03z"/>
	<path class="st1" d="M19.44,223.46c-0.71,1.01-1.22,2.04-2.27,3.03c0.74,0.67,1.61,0.33,2.46,0.17c1.3-0.72-0.76-1.68,0.93-2.37
		C20.22,223.77,19.84,223.55,19.44,223.46z"/>
	<path class="st1" d="M33.51,210.95c0.95-1.43,1.77-2.88,0.59-4.46C32.96,207.81,32.04,210.05,33.51,210.95z"/>
	<path class="st1" d="M35.87,204.17c-0.99,1.19-1.75,0.67-2.61,0.94c0.85,0.36,1.67,0.96,2.54,1.12
		C36.26,205.58,36.19,204.88,35.87,204.17z"/>
	<path class="st1" d="M12.13,220.88c0.48,0.02,1.02-0.38,1.56-0.83C13.22,218.72,11.1,220.11,12.13,220.88z"/>
	<path class="st1" d="M93.46,153.84c1.87,1.69,4.75-0.35,7.05,1.44c-0.28-2.41,0.71-4.35-0.44-6.04
		C96.8,144.41,89.72,150.46,93.46,153.84z"/>
	<path class="st1" d="M33.24,202.11c1.64,2.29,4.51,0.38,2.07-1.55C34.44,200.34,33.18,201.28,33.24,202.11z"/>
	<path class="st1" d="M10.93,217.41c0.95,0.78,3.26-0.54,2.71-1.68C12.62,215.17,10.5,216.2,10.93,217.41z"/>
	<path class="st1" d="M34.58,196.76c-1.09-1.63-4.17-1.34-6.25,0.3C28.88,202.2,36.75,200.01,34.58,196.76z"/>
	<path class="st1" d="M45.16,187.19c-0.65,0.39-0.92,0.81-0.38,1.29C45.61,188.2,45.96,187.97,45.16,187.19z"/>
	<path class="st1" d="M42.88,187.21c1.17-0.61-0.37-1.82-1.03-1.57C40.95,186.12,42.08,187.71,42.88,187.21z"/>
	<path class="st1" d="M85.27,153.25c0.54,0.53,1.16,0.56,1.87-0.05C86.6,152.33,85.42,152.28,85.27,153.25z"/>
	<path class="st1" d="M63.33,167.27c2.8-0.82,5.3-0.17,7.55-2.28c2.65-2.48,2.1-6.47,0.83-9.33c-1.27-0.86-2.67-0.71-3.8-2.53
		c-2.75-1.05-5.39,1.7-7.9,1.87c-1.17,1.92-1.59,3.89-2.84,5.81c0.78,1.56,2.14,3.16,2.27,4.67
		C60.77,165.74,62.18,165.54,63.33,167.27z"/>
	<path class="st1" d="M25.84,195.57c0.3,0.33,0.6,0.67,0.91,1c0.31-0.23,0.61-0.46,0.92-0.68C27.14,195.13,26.56,194.8,25.84,195.57
		z"/>
	<path class="st1" d="M59.56,170.75c0.86,0.07,0.69-0.9,1.02-1.43c-1.68-1.9-3.61-1.85-5.49-2.27
		C55.12,169.01,58.71,168.69,59.56,170.75z"/>
	<path class="st1" d="M54.62,172.09c-0.3,0.23-0.61,0.46-0.91,0.69C54.22,173.68,55.5,172.73,54.62,172.09z"/>
	<path class="st1" d="M30.11,188.36c-0.17-1.51-2.11-1.23-3.18-0.98c0.83,0.49,1.71,0.62,2.49,1.49
		C29.65,188.71,29.88,188.53,30.11,188.36z"/>
	<path class="st1" d="M13.08,199.73c0.09-0.5-0.55-1.04-1.03-1.58c-0.64,0.27-1.74,0.64-1.84,1.37
		C11.07,200.33,12.03,200.4,13.08,199.73z"/>
	<path class="st1" d="M48.1,168.24C51.66,174.95,53.25,163.36,48.1,168.24L48.1,168.24z"/>
	<path class="st1" d="M93.21,133.92c-1.02,0.65-0.59,2.07,0.53,2.29c1.11-0.55,0.42-1.22,0.66-1.83
		C94.01,134.17,93.61,134.12,93.21,133.92z"/>
	<path class="st1" d="M154.19,87.77c-2.02,1.42-2.1,2.98-3.69,4.43C152.64,92.77,155.05,89.21,154.19,87.77z"/>
	<path class="st1" d="M76.99,147.03c3.09-2.67-1.64-3-3.37-4.18C73.28,144.65,76.18,145.26,76.99,147.03z"/>
	<path class="st1" d="M23.97,183.23c-0.66,0.39-0.5,0.84,0.03,1.32c0.3-0.23,0.61-0.46,0.92-0.68
		C24.64,183.37,24.28,183.44,23.97,183.23z"/>
	<path class="st1" d="M66.48,149.84c1.39-1.48-1.69-3.02-2.79-3.95C62.54,147.04,65.62,149.13,66.48,149.84z"/>
	<path class="st1" d="M62.08,151.78c0.63,0.05,1.9-0.82,1.02-1.43C62.47,150.3,61.21,151.17,62.08,151.78z"/>
	<path class="st1" d="M83.01,125.11c0.19-1.07-0.91-2.85-2.29-2.98C78.47,123.55,80.49,127.34,83.01,125.11z"/>
	<path class="st1" d="M70.52,133.42c-0.61-1.12-1.43-0.61-2.18-0.72c-1.11-1.07-1.41-2.79-2.93-2.84c-1.15,0.92,0.36,2.03,1.24,3.1
		c-1.25,0.4-3.12,0.42-3.34,1.82C65.58,135.36,67.98,134.94,70.52,133.42z"/>
	<path class="st1" d="M102.83,95.92c-0.38-0.21-0.79-0.25-1.18-0.46c-0.85,0.63-1.5,1.27-0.89,2
		C101.74,98.38,103.14,96.67,102.83,95.92z"/>
	<path class="st1" d="M99.1,74.25c-0.92-0.04-1.5,1-0.84,1.63C99.05,75.92,100.22,74.92,99.1,74.25z"/>
	<path class="st1" d="M53.4,94.26c-2.2,0.46-1.86,2.58-1.95,3.8C54.04,99.59,54.97,95.82,53.4,94.26z"/>
	<path class="st1" d="M91.59,145.62c0.15-0.78,0-1.28-0.3-1.67c-0.99-0.24-0.77,0.67-1.51,0.67
		C89.98,145.31,90.3,145.89,91.59,145.62z"/>
	<path class="st1" d="M299.01,206.13c0.53-0.43,0.57-1.58,0.09-2.01c-1.04,0.07-1.6,0.59-1.55,1.68
		C298.21,205.75,298.32,206.21,299.01,206.13z"/>
	<path class="st1" d="M288.62,224.85c-0.15,0.78,0,1.28,0.3,1.67c1.58-0.49,2.98-1.14,4.85-1.35c-0.07-1.22-1.2-1.52-2.13-2
		c-1.14-0.15-1.19,0.73-1.57,1.3c-0.31,0.07-0.62,0.11-0.92,0.04c0.03,0.16,0.13,0.29,0.25,0.4
		C289.21,224.95,288.96,224.94,288.62,224.85z"/>
	<path class="st1" d="M31.21,228.92c1.29,0.65,1.97-0.16,3.69-0.01C36,225.59,30.57,226.08,31.21,228.92z"/>
	<path class="st1" d="M259.87,232.61c2.27-0.47,5.15-2.03,4.6-4.02C262.29,229.33,260.22,230.17,259.87,232.61z"/>
	<path class="st1" d="M293.38,234.52c-0.42-0.38-1.28-0.38-2.2-0.33C290.41,235.86,293.64,236.05,293.38,234.52z"/>
	<path class="st1" d="M287.3,238.54c0.44,1.31,3.36,1.85,4.05,0.32C291.17,237.39,287.82,237,287.3,238.54z"/>
	<path class="st1" d="M232.09,243.71c0.96,0.09,1.58-0.13,1.51-1C232.59,242.36,232.05,242.33,232.09,243.71z"/>
	<path class="st1" d="M233.77,247.71c1.27,0.18,1.66-2.24,0.46-2.33C232.59,245.11,232.92,247.46,233.77,247.71z"/>
	<path class="st1" d="M198.69,255.52c0.92-1.11,2.24-1.85,3.21-2.92c0.58,1.57,1.76,2.62,2.71,3.87c1.74-1.97-1.89-4.32-0.82-7.01
		c-0.39-0.37-0.76-0.24-1.15,0c-1.4-0.17-3.93,0.49-4.78,1.4c-0.06,0.87-0.1,1.73-0.04,2.49c-0.59-0.75-1-1.67-0.7-3.2
		c-3.35-1.25-5.09-3.75-9.09-3.31c-4.72,0.52-7.82,4.91-9.23,8.7c0.4,1.8,1.84,2.68,1.25,5.34c1.61,3.08,6.55,2.29,9.05,3.98
		c2.83-1.06,5.01-2.71,7.91-3.7C197.62,259.32,197.84,257.12,198.69,255.52z"/>
	<path class="st1" d="M209.6,251.78c0.49,0,0.98,0,1.48-0.01C211.42,250.49,209.36,250.5,209.6,251.78z"/>
	<path class="st1" d="M219.1,254.09c-1.33,1.65,1.1,3.12,2.87,2C222.69,254.04,220.61,253.17,219.1,254.09z"/>
	<path class="st1" d="M273.32,254.94c-0.53,0.43-0.43,1.45-0.47,2.34c0.84,0.21,2.2,0.66,2.96-0.01
		C275.73,255.83,274.91,255.06,273.32,254.94z"/>
	<path class="st1" d="M98.7,256.1c-2.79,3.31,0.3,8.63,4.8,8.67c0.02-0.33,0.46-0.27,0.75-0.34
		C106.38,260.59,103.77,255.75,98.7,256.1z"/>
	<path class="st1" d="M212.18,260.46C214.95,251.11,202.97,261.51,212.18,260.46L212.18,260.46z"/>
	<path class="st1" d="M223.32,259.09c0.01-0.33,0.03-0.67,0.04-1c-0.47-0.47-2.07-0.47-2.58,0.01
		C220.81,259.42,222.23,259.53,223.32,259.09z"/>
	<path class="st1" d="M140.66,258.65c-1.53-0.28-1.5,0.91-2.27,1.34c0.17,0.49,0.51,0.84,0.68,1.33
		C140.62,261.44,141.51,259.7,140.66,258.65z"/>
	<path class="st1" d="M40.49,262.28c3.18,0.08,4.67-1.42,7.46-1.69C46.46,258.43,41,260.19,40.49,262.28z"/>
	<path class="st1" d="M165.41,266.93c1.96-1.55-0.2-4.31,0.65-6.68C160.77,260.63,164.87,264.46,165.41,266.93z"/>
	<path class="st1" d="M213.11,264.79c0.84,0.16,1.86,0.66,2.59-0.01C216.47,262.22,212.64,262.33,213.11,264.79z"/>
	<path class="st1" d="M86.51,265.15c1.48,0.37,1.87-1.03,1.18-1.67C86.53,263.33,86.48,264.19,86.51,265.15z"/>
	<path class="st1" d="M227.83,265.75c0.21-1.46-0.36-2.26-1.75-2.33C226.26,264.55,226.07,266,227.83,265.75z"/>
	<path class="st1" d="M178.4,265.23c-2.64,0.45-1.17,4.27-1,6.01C179.53,270.94,178.55,266.58,178.4,265.23z"/>
	<path class="st1" d="M182.01,267.22c0.54,0.51,2.5,0.59,2.24-0.68C183.71,266.04,181.75,265.95,182.01,267.22z"/>
	<path class="st1" d="M194.78,270.52c-1.1,0.95-2.51,3.69-0.95,5.01C197.32,275.91,199.47,270.27,194.78,270.52z"/>
	<path class="st1" d="M214.61,272.8c-0.63,0.14-1.32,1.96-0.47,2.34C215.51,275.41,214.92,273.08,214.61,272.8z"/>
	<path class="st1" d="M226.7,275.1c-0.48,1.16,1.99,1.55,1.48,0C227.68,275.1,227.19,275.1,226.7,275.1z"/>
	<path class="st1" d="M140.59,277.69c-1.15,0.93-1.74,3.51-0.57,4.67C143.41,282.61,144.96,277.32,140.59,277.69z"/>
	<path class="st1" d="M233.47,280.76c0.78,0.28,1.22,0.86,2.56,0.66C238.33,278.64,232.85,276.89,233.47,280.76z"/>
	<path class="st1" d="M159.74,278.63c-0.45,1.57,0.78,1.67,1.38,2.33c0.06,1.89-1.22,3.83,0.15,5c1.9-0.06,1.51-2.29,1.65-4.01
		c1.53,0.52,3.29,1.89,4.77,0.65C166.11,280.36,163.49,279,159.74,278.63z"/>
	<path class="st1" d="M135.24,290.72c1.3-1.16,3.1-3.48,2.09-5.68C135.67,285.86,134.31,288.6,135.24,290.72z"/>
	<path class="st1" d="M212.85,288.16c2.06,0.2,3-2.12,2.72-3.01C214.13,285.65,212.58,286.05,212.85,288.16z"/>
	<path class="st1" d="M218.01,288.48c-1.4-0.99-2.49,0.61-1.55,1.67C217.5,290.09,218.06,289.57,218.01,288.48z"/>
	<path class="st1" d="M243.42,289.75c-0.19,1.89,1.07,2.5,2.84,2.66C247.07,291.08,245.13,288.81,243.42,289.75z"/>
	<path class="st1" d="M95.69,292.16c0.17,0.49,0.51,0.84,0.68,1.34c1.36,0,2.55-0.16,2.64-1.34
		C98.93,290.51,96.08,291.19,95.69,292.16z"/>
	<path class="st1" d="M197.77,295.89c-0.02,1.58,0.9,4.95,3.84,4.99C201.29,298.37,199.5,297.16,197.77,295.89z"/>
	<path class="st1" d="M228.58,300.13c2.3,0.32,2.82-2.54,2.01-4.01C229.52,297.07,229.21,298.76,228.58,300.13z"/>
	<path class="st1" d="M203.97,297.53c0.06,2.84,1.38,4.57,3.06,6C210.47,302.46,207.16,294.85,203.97,297.53z"/>
	<path class="st1" d="M179.48,300.61c0.3-2.13-3.32-2.86-2.96,0.01C177.04,301.11,178.92,301.1,179.48,300.61z"/>
	<path class="st1" d="M237.49,299.11c-0.58,0.54-0.66,2.46-0.13,3C240.29,302.85,240.48,298.35,237.49,299.11z"/>
	<path class="st1" d="M177.76,306.29c0.43-0.05,0.65,0.07,0.72,0.33c1.86-0.21,2.48-1.61,2.73-3.35
		C180.1,300.75,176.48,304.41,177.76,306.29z"/>
	<path class="st1" d="M217.31,313.52c-0.71,2.03,3.09,1.4,4.01,0.99C221.05,312.53,219.32,313.68,217.31,313.52z"/>
	<path class="st1" d="M79.52,316.58c0.81,0.72,2.3,0.11,2.26-1.01C81.07,314.96,79.08,315.08,79.52,316.58z"/>
	<path class="st1" d="M140.19,330.43c2.47,1.17,4.07-1.2,5.27-2.35C144.42,324.63,140.13,327.72,140.19,330.43z"/>
	<path class="st1" d="M257.54,123.33c1.77,0.56,2.07-3.73,0.52-3.56C257.05,120.21,257.84,122.26,257.54,123.33z"/>
	<path class="st1" d="M257.35,151.38c-1.13,1.13-2.82,1.75-3.57,3.23C255.23,155.48,258.55,152.85,257.35,151.38z"/>
	<path class="st1" d="M250.63,80.81c0.92-1.38,0.62-1.76,0.52-3.56c-1.62-0.4-1.27,1-2.64,0.84
		C248.28,79.85,248.69,81.02,250.63,80.81z"/>
	<path class="st1" d="M247.22,76.93c-0.73,0.01-1.45,0.03-2.18,0.04c-0.02,0.79-0.04,1.58-0.05,2.37
		C246.02,78.8,247.16,78.35,247.22,76.93z"/>
	<path class="st1" d="M238.97,94.47c0.25-1.77-1.26-1.95-3.02-1.92C235.72,94.31,237.02,94.68,238.97,94.47z"/>
	<path class="st1" d="M231.37,257.32c-1.3,0.03-2.66,0.01-2.65,1.24c4.07,0.58,1.12,7.51,5.06,8.19
		C233.8,264.35,231.59,260.78,231.37,257.32z"/>
	<path class="st1" d="M198.6,82.61c0.65,1.47,1.33,2.93,3.87,2.69C203.65,83.53,201.29,82.1,198.6,82.61z"/>
	<path class="st1" d="M191.33,55.89c0.58,1.01,2.68,0.04,3.5-0.07c0,1.68,1.37,2.12,3,2.32c-1.06-4.65,4.01-5.73,2.4-9.52
		c-2.12,0.37-4.06,0.89-5.71,1.69c-0.02,1.05-0.3,2.33,0.82,2.36c-0.44-0.99,1.51-1.78,1.76-0.83
		C196.28,54.17,192.88,54.2,191.33,55.89z"/>
	<path class="st1" d="M191.3,57.47c-0.9,0.13-0.9,1.06-1.35,1.61c1.33,0.73,2.15,1.92,4.33,1.89
		C193.98,59.18,192.85,58.13,191.3,57.47z"/>
	<path class="st1" d="M191,70.51c0.04-0.51,0.57-0.56,0.47-1.19c-0.91-0.21-1.22-0.96-2.6-0.74C188.48,70.21,189.49,70.58,191,70.51
		z"/>
	<path class="st1" d="M188.01,67.8c0.16-0.92-0.04-1.52-0.4-1.96C185.96,65.57,186.61,68.41,188.01,67.8z"/>
	<path class="st1" d="M186.58,72.96c1.38-1.94-1.42-2.97-3.42-3.09C182.29,71.33,185.16,72.3,186.58,72.96z"/>
	<path class="st1" d="M172.48,77.97c0.41-1.65,1.19-2.95,0.99-5.16c-1.01-0.11-1.68,0.1-2.19,0.44
		C171.37,75.1,171.17,77.23,172.48,77.97z"/>
	<path class="st1" d="M165.26,88.38c-0.25-0.81,0.77-2.76-0.82-2.35C164.42,87.07,164.14,88.36,165.26,88.38z"/>
	<path class="st1" d="M146.67,79.65c0.62-0.53,1.62-2.12,0.05-2.37C146.37,77.56,145.7,79.51,146.67,79.65z"/>
	<path class="st1" d="M144.9,80.47c-2.47,0.35-5.46-0.22-5.75,2.87C141.92,84.17,145.1,83.49,144.9,80.47z"/>
	<path class="st1" d="M144.59,74.95c-0.23-0.96-0.33-2.03-1.71-1.95C142.89,74.17,143.85,74.46,144.59,74.95z"/>
	<path class="st1" d="M125.72,233.68c-0.51,1.55,2.57,1.53,2.62,0.34C127.21,233.54,127.04,233.18,125.72,233.68z"/>
	<path class="st1" d="M120.84,236.94c-0.01,0.39-0.01,0.79-0.03,1.18c0.99,0.09,1.64-0.13,1.77-0.82
		C122,237.18,121.76,236.75,120.84,236.94z"/>
	<path class="st1" d="M116.73,109.06c1.13-0.46,0.91-2.13,0.95-3.57c1.51-0.78,3.33-1.29,4-2.84c0.01-0.27,0.01-0.53,0.02-0.79
		c-0.51-0.45-1.53-0.42-2.61-0.35c-0.79,2.25-3.05,3.16-4.06,5.22C115.08,107.96,115.29,109.07,116.73,109.06z"/>
	<path class="st1" d="M117.77,140.63c1.42,0.08,2.11-0.51,2.22-1.62c-0.27-0.02-0.52-0.05-0.43-0.39
		C118.33,138.72,117.68,139.35,117.77,140.63z"/>
	<path class="st1" d="M103.73,142.88c0.35-1.21-0.73-1.15-0.38-2.37c2.1,0.16,2.25-1.46,2.25-3.2c5.01-1.61,0.74-4.29,0.16-7.11
		c-3.13,0.26-3.93,2.62-4.48,5.22c1.75,0.51,1.4-0.88,2.64-0.84c-0.34,1.22,0.73,1.15,0.39,2.36c-0.91,0.96-1.71-0.51-2.63,0.44
		c1.17,2.29-0.74,2.38-1.4,3.98C101.03,142.44,102.13,143.64,103.73,142.88z"/>
	<path class="st1" d="M105.61,117.96c0.14-1.29-0.48-1.89-1.71-1.94c-0.38,0.46-0.6,1.07-0.48,1.98
		C104.15,117.98,104.87,117.97,105.61,117.96z"/>
	<path class="st1" d="M97.37,114.96c0.1,1.59,0.58,2.83,2.56,2.71C99.84,116.08,99.35,114.84,97.37,114.96z"/>
	<path class="st1" d="M98.8,90.05c1.1-1.92-0.78-4.09-3.85-3.48C95.48,88.41,96.18,90.1,98.8,90.05z"/>
	<path class="st1" d="M92.61,112.68c0.92,0.21,1.23,0.96,2.61,0.74c-1.09-2.16-0.4-2.39,0.96-3.97c-1.03-0.48-1.58-1.41-3.47-1.11
		C92.16,109.03,92.99,110.95,92.61,112.68z"/>
	<path class="st1" d="M89.55,132.48c0.52-0.48,0.53-1.41,0.49-2.38c-1.67-0.16-2.79,0.16-3.52,0.86
		C86.51,132.4,87.77,132.67,89.55,132.48z"/>
	<path class="st1" d="M78.99,116.61c0.16,1.07,0.66,2.19,1.89,2.72c0.4-0.88,0.16-2.23-0.63-3.24c1.27-0.62,2.36-1.41,4.02-1.67
		c1.42-4.14,2.67-5.4,0.2-9.09c-2.05-0.63-3.37,0-5.68,0.11c-0.77,3.88-2.54,7.6-2.01,11.49C77.65,116.93,78.36,116.81,78.99,116.61
		z"/>
	<path class="st1" d="M73.88,110.27c-1.46-0.24-1.61,0.69-1.78,1.61C73.46,112.92,74.92,111.6,73.88,110.27z"/>
</g>
</svg>
